<svg xmlns="http://www.w3.org/2000/svg" width="20" height="20" viewBox="0 0 20 20">
    <path fill="#344563" fill-rule="evenodd" d="M15.132 2.5h1.184c.654 0 1.184.506 1.184 1.131v10.555a2.026 2.026 0 0 0-1.184-.376H5.658V2.5h4.737v6.409c0 .266.282.449.541.35l1.827-.698 1.827.698c.26.099.542-.084.542-.35V2.5zM12.85 7.787a.412.412 0 0 0-.051-.008l-1.615.617-.037-5.896h3.195l.037 5.896-1.529-.609zM2.5 14.602V3.63c0-.625.53-1.131 1.184-1.131h1.184v11.31h-.394a2.82 2.82 0 0 0-1.974.792zm1.974-.039h11.842c.654 0 1.184.507 1.184 1.131v1.508c0 .625-.53 1.131-1.184 1.131H4.474c-1.09 0-1.974-.844-1.974-1.885 0-1.04.884-1.885 1.974-1.885z"/>
</svg>
