<svg xmlns="http://www.w3.org/2000/svg" width="28" height="28" viewBox="0 0 28 28">
    <path fill="#6554C0" fill-rule="evenodd" d="M21.184 3.5h1.658c.916 0 1.658.709 1.658 1.583v14.778a2.837 2.837 0 0 0-1.658-.528H7.922V3.5h6.63v8.972c0 .374.396.629.759.49l2.557-.977 2.558.977c.363.139.758-.116.758-.49V3.5zm-3.193 7.402a.577.577 0 0 0-.073-.011l-2.26.863-.052-8.254h4.473l.052 8.254-2.14-.852zM3.5 20.442V5.083c0-.874.742-1.583 1.658-1.583h1.658v15.833h-.553a3.948 3.948 0 0 0-2.763 1.11zm2.763-.053h16.58c.915 0 1.657.709 1.657 1.583v2.111c0 .875-.742 1.584-1.658 1.584H6.263c-1.526 0-2.763-1.182-2.763-2.64 0-1.457 1.237-2.638 2.763-2.638z"/>
</svg>
