<svg xmlns="http://www.w3.org/2000/svg" width="44" height="44" viewBox="0 0 44 44">
    <g fill="none" fill-rule="evenodd">
        <path fill="#252525" d="M22 0c12.15 0 22 9.85 22 22s-9.85 22-22 22S0 34.15 0 22 9.85 0 22 0z"/>
        <path fill="#555" d="M26.033 12a4.974 4.974 0 0 1 4.962 4.752l.005.215v8.066a4.974 4.974 0 0 1-4.752 4.963l-.215.004h-8.066a4.973 4.973 0 0 1-4.962-4.752L13 25.033v-8.066a4.973 4.973 0 0 1 4.752-4.962l.215-.005h8.066zm0 1.597h-8.066a3.374 3.374 0 0 0-3.365 3.186l-.005.184v8.066a3.374 3.374 0 0 0 3.186 3.365l.184.005h8.066a3.374 3.374 0 0 0 3.365-3.186l.005-.184v-8.066a3.374 3.374 0 0 0-3.37-3.37zM22 16.362A4.643 4.643 0 0 1 26.638 21 4.644 4.644 0 0 1 22 25.638 4.643 4.643 0 0 1 17.362 21 4.643 4.643 0 0 1 22 16.362zm0 1.597A3.044 3.044 0 0 0 18.959 21a3.045 3.045 0 0 0 3.04 3.041A3.045 3.045 0 0 0 25.042 21 3.044 3.044 0 0 0 22 17.959zm4.833-2.951c.308 0 .61.124.828.343a1.176 1.176 0 0 1 0 1.656c-.218.218-.52.343-.828.343a1.18 1.18 0 0 1-.828-.343 1.18 1.18 0 0 1-.344-.828 1.176 1.176 0 0 1 1.172-1.171z"/>
    </g>
</svg>
