<svg xmlns="http://www.w3.org/2000/svg" width="20" height="20" viewBox="0 0 20 20">
    <path fill="#344563" fill-rule="evenodd" d="M11.238 1.667a.49.49 0 0 1 .48.389l.333 1.583c.343.11.676.248.996.413l1.355-.884a.49.49 0 0 1 .615.064l1.751 1.751a.49.49 0 0 1 .064.615l-.884 1.355c.165.32.303.653.413.996l1.583.333a.49.49 0 0 1 .39.48v2.476a.49.49 0 0 1-.39.48l-1.583.333c-.11.343-.248.676-.413.996l.884 1.355a.49.49 0 0 1-.064.615l-1.751 1.751a.49.49 0 0 1-.615.064l-1.355-.884c-.32.165-.653.303-.996.413l-.333 1.583a.49.49 0 0 1-.48.39H8.762a.49.49 0 0 1-.48-.39l-.333-1.583a6.643 6.643 0 0 1-.996-.413l-1.355.884a.49.49 0 0 1-.615-.064l-1.751-1.751a.49.49 0 0 1-.064-.615l.884-1.355a6.643 6.643 0 0 1-.413-.996l-1.583-.333a.49.49 0 0 1-.39-.48V8.762a.49.49 0 0 1 .39-.48l1.583-.333c.11-.343.248-.676.413-.996l-.884-1.355a.49.49 0 0 1 .064-.615l1.751-1.751a.49.49 0 0 1 .615-.064l1.355.884c.32-.165.653-.303.996-.413l.333-1.583a.49.49 0 0 1 .48-.39h2.476zM10 6.569a3.431 3.431 0 1 0 0 6.862 3.431 3.431 0 0 0 0-6.862zm0 .98a2.451 2.451 0 1 1 0 4.902 2.451 2.451 0 0 1 0-4.902z"/>
</svg>
