<svg xmlns="http://www.w3.org/2000/svg" width="36" height="29" viewBox="0 0 36 29">
    <path fill="#164DFF" fill-rule="evenodd" d="M35.007.578a14.971 14.971 0 0 1-4.693 1.772A7.403 7.403 0 0 0 24.925.043c-4.08 0-7.386 3.27-7.386 7.3 0 .572.065 1.13.19 1.663A21.049 21.049 0 0 1 2.509 1.378a7.19 7.19 0 0 0-.999 3.67 7.275 7.275 0 0 0 3.285 6.076 7.451 7.451 0 0 1-3.345-.917v.091c0 3.538 2.546 6.487 5.923 7.16a7.554 7.554 0 0 1-1.945.257 7.55 7.55 0 0 1-1.391-.133c.94 2.9 3.667 5.011 6.897 5.072a14.931 14.931 0 0 1-9.171 3.123c-.597 0-1.184-.035-1.762-.1 3.27 2.07 7.149 3.28 11.321 3.28 13.584 0 21.012-11.126 21.012-20.773l-.024-.946A14.776 14.776 0 0 0 36 3.464c-1.325.58-2.746.975-4.24 1.15A7.356 7.356 0 0 0 35.007.578z"/>
</svg>
