<svg xmlns="http://www.w3.org/2000/svg" width="44" height="44" viewBox="0 0 44 44">
    <g fill="none" fill-rule="evenodd">
        <path fill="#252525" d="M22 0c12.15 0 22 9.85 22 22s-9.85 22-22 22S0 34.15 0 22 9.85 0 22 0z"/>
        <path fill="#FFF" d="M30.504 15.277a7.306 7.306 0 0 1-2.347.92A3.639 3.639 0 0 0 25.462 15c-2.04 0-3.693 1.696-3.693 3.787 0 .297.033.586.096.863-3.069-.158-5.79-1.666-7.611-3.958-.318.559-.5 1.21-.5 1.904 0 1.315.653 2.474 1.643 3.152a3.62 3.62 0 0 1-1.673-.475v.047c0 1.835 1.274 3.365 2.962 3.715a3.639 3.639 0 0 1-1.668.064c.47 1.504 1.833 2.6 3.449 2.63A7.293 7.293 0 0 1 13 28.3 10.27 10.27 0 0 0 18.66 30c6.793 0 10.507-5.772 10.507-10.777l-.012-.49A7.552 7.552 0 0 0 31 16.775a7.24 7.24 0 0 1-2.12.596 3.792 3.792 0 0 0 1.624-2.094z"/>
    </g>
</svg>
