<svg xmlns="http://www.w3.org/2000/svg" width="27" height="27" viewBox="0 0 27 27">
    <path fill="#AEAEB2" fill-rule="evenodd" d="M13.5 7.793c4.67 0 8.841 3.24 10.88 8.23a.66.66 0 0 1 0 .498c-2.039 4.99-6.21 8.229-10.88 8.229-4.67 0-8.841-3.239-10.88-8.229a.66.66 0 0 1 0-.499c2.039-4.99 6.21-8.229 10.88-8.229zm0 5.218c-1.775 0-3.214 1.46-3.214 3.26 0 1.802 1.439 3.262 3.214 3.262s3.214-1.46 3.214-3.261c0-1.801-1.439-3.261-3.214-3.261zm0 1.304c1.065 0 1.929.876 1.929 1.957 0 1.08-.864 1.956-1.929 1.956s-1.929-.876-1.929-1.956.864-1.957 1.929-1.957zM24.468 3.841a.988.988 0 0 1 0 1.383l-2.572 2.609a.955.955 0 0 1-1.364 0 .988.988 0 0 1 0-1.383l2.572-2.61a.955.955 0 0 1 1.364 0zm-20.572 0L6.468 6.45a.988.988 0 0 1 0 1.383.955.955 0 0 1-1.364 0L2.532 5.224a.988.988 0 0 1 0-1.383.955.955 0 0 1 1.364 0zM13.5 2.25c.533 0 .964.438.964.978v2.609c0 .54-.431.978-.964.978a.971.971 0 0 1-.964-.978V3.228c0-.54.431-.978.964-.978z"/>
</svg>
