<svg xmlns="http://www.w3.org/2000/svg" width="20" height="20" viewBox="0 0 20 20">
    <path fill="#344563" fill-rule="evenodd" d="M10 5.773c3.46 0 6.55 2.4 8.059 6.095a.49.49 0 0 1 0 .37c-1.51 3.696-4.6 6.095-8.059 6.095-3.46 0-6.55-2.399-8.059-6.095a.49.49 0 0 1 0-.37c1.51-3.696 4.6-6.095 8.059-6.095zm0 3.865c-1.315 0-2.381 1.081-2.381 2.415S8.685 14.47 10 14.47c1.315 0 2.381-1.082 2.381-2.416 0-1.334-1.066-2.415-2.381-2.415zm0 .966c.789 0 1.429.649 1.429 1.45 0 .8-.64 1.448-1.429 1.448a1.439 1.439 0 0 1-1.429-1.449c0-.8.64-1.45 1.429-1.45zm8.124-7.759a.732.732 0 0 1 0 1.025L16.22 5.802a.707.707 0 0 1-1.01 0 .732.732 0 0 1 0-1.025l1.905-1.932a.707.707 0 0 1 1.01 0zm-15.238 0l1.905 1.932a.732.732 0 0 1 0 1.025.707.707 0 0 1-1.01 0L1.876 3.87a.732.732 0 0 1 0-1.025.707.707 0 0 1 1.01 0zM10 1.667a.72.72 0 0 1 .714.724v1.933c0 .4-.32.724-.714.724a.72.72 0 0 1-.714-.724V2.39c0-.4.32-.724.714-.724z"/>
</svg>
