<svg xmlns="http://www.w3.org/2000/svg" width="44" height="44" viewBox="0 0 44 44">
    <g fill="none" fill-rule="evenodd">
        <path fill="#252525" d="M22 0c12.15 0 22 9.85 22 22s-9.85 22-22 22S0 34.15 0 22 9.85 0 22 0z"/>
        <path fill="#555" d="M27.351 14c2.673 0 4.072.373 4.83 1.288.762.918.819 2.325.819 4.367v3.69c0 2.34-.364 3.69-1.216 4.519-.83.807-2.115 1.136-4.433 1.136H17.65C12.874 29 12 27.096 12 23.345v-3.69c0-1.936 0-3.335.736-4.284.755-.974 2.179-1.371 4.913-1.371zm-6.276 4.468a.67.67 0 0 0-.664.022.69.69 0 0 0-.326.588v4.66c0 .24.124.462.327.587a.671.671 0 0 0 .664.022l4.406-2.338a.688.688 0 0 0 .364-.61.688.688 0 0 0-.365-.609z"/>
    </g>
</svg>
