<svg xmlns="http://www.w3.org/2000/svg" width="46" height="66" viewBox="0 0 46 66">
    <g fill="none" fill-rule="nonzero">
        <path fill="#FFF" d="M45.294 43.36c.108-6.094-2.384-11.456-6.257-15.546 0 0-12.106-13.596-16.25-27.814C18.672 14.218 6.539 27.814 6.539 27.814 2.665 31.849.201 37.239.282 43.36c.162 12.214 10.075 22.397 22.397 22.478h.163-.081c12.377-.081 22.316-10.156 22.533-22.478z"/>
        <path fill="#F5A623" d="M36 57c3.326-4.353 6.965-8.008 7.062-13.541C43.157 37.99 41 35 38 30c-3-5-8.547-7.076-14.053-7.216l-.135-.002C17.949 22.725 12 26 9 31c-2.351 3.919-4.91 6.886-5 12l32 14z"/>
        <path fill="#00AB44" d="M4 43c0 10.779 8.694 19.527 19.473 19.608h.135c10.806-.081 19.5-8.829 19.5-19.608-8.493 4-14.862 6-19.108 6-4.444 0-11.111-2-20-6z"/>
        <path fill="#D0021B" d="M23.688 62.728h.135M37.69 29.374S27.37 17.159 23.77 4.62C20.166 17.186 9.848 29.374 9.848 29.374 16.552 32.458 21.269 34 24 34c3.572 0 8.135-1.542 13.69-4.626z"/>
        <path fill="#FFF" fill-opacity=".329" d="M21.778 10.99C20.288 22.365 8.535 29.108 6.964 38.858c-1.544 9.75 2.464 17.712 9.641 21.233C9.103 56.76 3.822 50.071 4.96 40.267c1.137-9.859 14.624-18.281 16.818-29.277z"/>
        <g fill="#FFF" fill-opacity=".329">
            <path d="M29.84 60.614c3.007-1.138 8.613-4.496 10.97-9.1 2.843-6.175 1.435-11.808-4.063-18.904-5.281-6.825-9.804-10.644-11.7-22.452 0 0 .488 9.398 5.39 16.548 0 0 1.597 2.302 2.627 3.494 0 0 4.143 5.145 5.362 10.995 0 0 2.22 7.177-2.302 13.46 0 0-2.465 3.71-5.47 5.444l-.813.515z"/>
            <path d="M24.83 8.75c1.76 12.891 6.419 16.764 11.917 23.833 5.47 7.096 6.906 12.702 4.062 18.904-2.925 5.687-10.806 9.506-12.566 9.506-1.408 0 10.59-11.32 3.141-25.458C23.937 21.398 23.53 20.26 24.83 8.75z"/>
        </g>
    </g>
</svg>
