<svg xmlns="http://www.w3.org/2000/svg" width="92" height="50" viewBox="0 0 92 50">
    <path fill="#454F5B" fill-rule="nonzero" d="M10.346 2.343v9.24l-.036.009a5.354 5.354 0 0 1-.568.095 6.421 6.421 0 0 1-.814.053c-.268 0-.505-.02-.709-.061a1.259 1.259 0 0 1-.516-.219.945.945 0 0 1-.315-.438c-.07-.186-.105-.431-.105-.734v-2.73h-3.36v4.025l-.035.009a5.354 5.354 0 0 1-.569.095 6.421 6.421 0 0 1-.813.053c-.269 0-.505-.02-.71-.061a1.259 1.259 0 0 1-.515-.219.945.945 0 0 1-.315-.438c-.07-.186-.105-.431-.105-.734v-9.24l.07-.013c.128-.022.309-.05.542-.084.28-.04.548-.061.805-.061.268 0 .505.02.709.061.204.041.376.114.516.219s.245.25.315.438c.07.186.105.431.105.735v2.8h3.36V1.046l.07-.012c.129-.022.31-.05.543-.084.28-.04.548-.061.805-.061.268 0 .504.02.708.061.204.041.377.114.517.219s.245.25.315.438c.07.186.105.431.105.735zm5.285 5.092c-.514-.175-.98-.353-1.4-.534-.42-.18-.782-.4-1.085-.656a2.722 2.722 0 0 1-.71-.919c-.168-.356-.253-.79-.253-1.303 0-.992.382-1.785 1.146-2.38.764-.596 1.835-.893 3.212-.893.501 0 .968.035 1.4.105.431.07.802.178 1.11.324.31.146.552.332.727.56.175.227.263.493.263.796a1.4 1.4 0 0 1-.21.779c-.14.216-.31.4-.508.551-.257-.163-.6-.306-1.032-.429a5.179 5.179 0 0 0-1.418-.183c-.525 0-.91.072-1.155.218-.245.146-.367.33-.367.552a.51.51 0 0 0 .227.428c.152.111.38.213.683.307l.927.297c1.097.35 1.94.796 2.529 1.339.589.542.884 1.28.884 2.214 0 .991-.391 1.793-1.173 2.406-.782.612-1.93.918-3.447.918a8.026 8.026 0 0 1-1.497-.13 4.737 4.737 0 0 1-1.207-.386 2.232 2.232 0 0 1-.805-.63 1.384 1.384 0 0 1-.289-.866c0-.338.1-.627.298-.866.198-.24.414-.423.647-.552a4.76 4.76 0 0 0 1.199.665c.472.187.989.28 1.549.28.571 0 .974-.087 1.207-.262.233-.175.35-.38.35-.613a.6.6 0 0 0-.28-.533 3.624 3.624 0 0 0-.787-.359l-.735-.245zm6.632-4.76c0-.502.146-.898.438-1.19.291-.292.688-.438 1.19-.438h5.775c.081.129.154.298.218.508.064.21.097.432.097.665 0 .443-.097.758-.29.945-.192.187-.445.28-.76.28h-3.693v1.628h3.938c.081.128.154.294.218.498.064.204.097.423.097.656 0 .444-.094.759-.28.945-.187.187-.438.28-.753.28h-3.22V9.29h4.498c.081.128.154.297.218.508.064.21.097.431.097.664 0 .444-.097.762-.29.954-.192.193-.445.289-.76.289h-5.11c-.502 0-.899-.146-1.19-.438-.292-.291-.438-.688-.438-1.19V2.676zM3.836 28.015c.163.047.373.079.63.096.256.018.501.027.735.027.466 0 .854-.097 1.163-.29.31-.192.464-.492.464-.9 0-.386-.128-.66-.385-.823-.257-.163-.647-.245-1.172-.245H3.836v2.135zm0-4.27h1.277c.502 0 .866-.093 1.094-.28.227-.187.341-.46.341-.823a.878.878 0 0 0-.394-.752c-.262-.187-.656-.28-1.181-.28-.148 0-.315.004-.5.013l-.104.004c-.227.012-.405.03-.533.053v2.065zm1.137 6.738h-.081c-.18-.002-.386-.008-.619-.018a10.65 10.65 0 0 1-.831-.07 13.523 13.523 0 0 1-.849-.131c-.26-.049-.5-.115-.72-.2l-.05-.019c-.642-.245-.962-.67-.962-1.278v-8.172c0-.245.067-.435.2-.569.135-.134.319-.242.552-.323.397-.14.893-.243 1.488-.307a17.132 17.132 0 0 1 1.837-.096c1.493 0 2.643.25 3.448.753.805.501 1.207 1.277 1.207 2.327 0 .525-.152.977-.455 1.356-.303.38-.712.656-1.225.832.583.163 1.07.46 1.461.892s.587.974.587 1.627c0 1.156-.43 2.01-1.287 2.564-.857.554-2.091.832-3.701.832zm6.423-11.148c0-.443.148-.817.446-1.12.297-.303.691-.455 1.181-.455.49 0 .884.152 1.181.455.298.303.447.677.447 1.12 0 .443-.15.817-.447 1.12-.297.303-.691.455-1.181.455-.49 0-.884-.152-1.181-.455a1.538 1.538 0 0 1-.446-1.12zm3.115 3.727v7.123l-.15.026c-.112.02-.252.043-.42.07a4.73 4.73 0 0 1-1.452.009 1.178 1.178 0 0 1-.516-.21 1.01 1.01 0 0 1-.324-.429c-.076-.18-.113-.417-.113-.708V21.82l.148-.026c.113-.02.253-.043.42-.07a4.73 4.73 0 0 1 1.453-.009c.204.035.376.105.516.21s.248.248.324.429c.076.18.114.417.114.709zm6.387 7.42a6.137 6.137 0 0 1-1.916-.288 4.342 4.342 0 0 1-1.54-.866 4.012 4.012 0 0 1-1.033-1.453c-.25-.583-.376-1.266-.376-2.047 0-.77.125-1.433.376-1.987s.58-1.009.989-1.365a3.952 3.952 0 0 1 1.4-.787 5.218 5.218 0 0 1 1.61-.254 4.86 4.86 0 0 1 1.689.28c.507.187.945.443 1.312.77.368.327.654.717.858 1.172.204.456.306.951.306 1.488 0 .397-.11.7-.332.91-.222.21-.531.344-.928.403l-4.322.647c.128.385.39.674.787.866.397.193.852.289 1.365.289.478 0 .93-.061 1.356-.184a4.311 4.311 0 0 0 1.042-.428c.186.116.344.28.472.49.128.21.193.431.193.665 0 .525-.245.915-.735 1.172a3.896 3.896 0 0 1-1.26.402c-.467.07-.905.106-1.313.106zm-.49-6.877c-.28 0-.522.047-.726.14-.204.093-.37.213-.499.359a1.49 1.49 0 0 0-.289.49c-.064.18-.102.364-.113.551l2.992-.49c-.035-.233-.163-.467-.385-.7-.222-.233-.548-.35-.98-.35zm10.99 1.207c0-.361-.102-.627-.306-.796-.204-.169-.481-.253-.831-.253-.234 0-.464.029-.692.087a1.743 1.743 0 0 0-.586.262v6.073a5.631 5.631 0 0 1-1.33.157c-.257 0-.487-.017-.691-.052a1.178 1.178 0 0 1-.516-.21 1.01 1.01 0 0 1-.324-.429c-.076-.18-.114-.417-.114-.708v-5.25c0-.316.067-.572.201-.77.134-.199.318-.38.552-.543.396-.28.895-.507 1.496-.683a7.153 7.153 0 0 1 2.004-.262c1.318 0 2.333.289 3.045.866.711.578 1.067 1.38 1.067 2.407v5.477a5.631 5.631 0 0 1-1.33.157c-.257 0-.487-.017-.691-.052a1.178 1.178 0 0 1-.516-.21 1.01 1.01 0 0 1-.324-.429c-.076-.18-.114-.417-.114-.708v-4.13zm10.203 0c0-.361-.103-.627-.307-.796-.204-.169-.481-.253-.831-.253-.233 0-.464.029-.691.087a1.743 1.743 0 0 0-.586.262v6.073a5.631 5.631 0 0 1-1.33.157c-.257 0-.488-.017-.692-.052a1.178 1.178 0 0 1-.516-.21 1.01 1.01 0 0 1-.324-.429c-.076-.18-.113-.417-.113-.708v-5.25c0-.316.067-.572.2-.77.135-.199.319-.38.552-.543.397-.28.895-.507 1.496-.683a7.153 7.153 0 0 1 2.004-.262c1.318 0 2.333.289 3.045.866.712.578 1.068 1.38 1.068 2.407v5.477a5.631 5.631 0 0 1-1.33.157c-.257 0-.488-.017-.692-.052a1.178 1.178 0 0 1-.516-.21 1.01 1.01 0 0 1-.324-.429c-.076-.18-.113-.417-.113-.708v-4.13zm4.742-5.477c0-.443.149-.817.446-1.12.298-.303.692-.455 1.182-.455s.883.152 1.18.455c.298.303.447.677.447 1.12 0 .443-.149.817-.446 1.12-.298.303-.691.455-1.181.455-.49 0-.884-.152-1.182-.455a1.538 1.538 0 0 1-.446-1.12zm3.115 3.727v7.123l-.149.026c-.112.02-.252.043-.42.07a4.73 4.73 0 0 1-1.452.009 1.178 1.178 0 0 1-.516-.21 1.01 1.01 0 0 1-.324-.429c-.076-.18-.114-.417-.114-.708V21.82l.149-.026c.113-.02.253-.043.42-.07a4.73 4.73 0 0 1 1.452-.009c.204.035.377.105.517.21s.247.248.323.429c.076.18.114.417.114.709zm5.53 5.25c.198 0 .417-.02.656-.06.24-.042.417-.097.534-.167v-1.4l-1.26.105c-.327.023-.595.093-.805.21a.565.565 0 0 0-.315.525c0 .233.09.423.271.569.181.146.487.218.919.218zm-.14-6.877c.63 0 1.205.064 1.724.192.519.129.962.324 1.33.587.367.262.65.595.849.997.198.403.297.878.297 1.427v3.92c0 .303-.085.55-.254.743-.169.193-.37.359-.603.499-.759.455-1.826.683-3.203.683a7.315 7.315 0 0 1-1.671-.176 3.968 3.968 0 0 1-1.278-.524 2.41 2.41 0 0 1-.822-.893c-.193-.362-.289-.782-.289-1.26 0-.805.24-1.423.718-1.855.47-.424 1.193-.69 2.17-.8l2.345-.25v-.123c0-.338-.15-.58-.447-.726-.297-.146-.726-.219-1.286-.219-.443 0-.875.047-1.295.14-.42.094-.8.21-1.137.35a1.212 1.212 0 0 1-.385-.48 1.522 1.522 0 0 1-.158-.675c0-.303.073-.545.219-.726.146-.18.37-.335.674-.463a5.258 5.258 0 0 1 1.198-.28c.461-.059.896-.088 1.304-.088zm9.048-1.4v10.15l-.15.026c-.112.02-.252.043-.42.07a4.73 4.73 0 0 1-1.452.009 1.178 1.178 0 0 1-.516-.21 1.01 1.01 0 0 1-.324-.429c-.076-.18-.113-.417-.113-.708v-10.15l.148-.027c.113-.02.253-.043.42-.07a4.73 4.73 0 0 1 1.453-.009c.204.036.376.105.516.21.14.106.248.248.324.43.076.18.114.416.114.708zM6.268 40.282c-.898 0-1.587.275-2.065.823-.478.548-.717 1.324-.717 2.328 0 1.015.265 1.796.796 2.345.53.548 1.245.822 2.144.822.478 0 .883-.064 1.216-.193.332-.128.65-.274.954-.437.198.163.352.359.463.586.111.228.167.493.167.797 0 .478-.266.883-.797 1.216-.53.332-1.338.498-2.423.498-.782 0-1.517-.11-2.205-.332a4.92 4.92 0 0 1-1.803-1.024c-.513-.46-.919-1.044-1.216-1.75-.298-.706-.446-1.548-.446-2.528 0-.91.142-1.713.428-2.407a5.11 5.11 0 0 1 1.173-1.759 4.934 4.934 0 0 1 1.741-1.085 6.127 6.127 0 0 1 2.135-.367c1.073 0 1.905.175 2.494.525.589.35.884.8.884 1.347 0 .304-.076.566-.228.788a1.873 1.873 0 0 1-.525.525 5.682 5.682 0 0 0-.971-.507 3.165 3.165 0 0 0-1.199-.21zm13.16 4.218c0 .723-.11 1.368-.332 1.934a3.92 3.92 0 0 1-.937 1.426 3.982 3.982 0 0 1-1.443.875 5.58 5.58 0 0 1-1.873.297 5.298 5.298 0 0 1-1.872-.314 4.12 4.12 0 0 1-1.444-.902 4.02 4.02 0 0 1-.936-1.426c-.222-.56-.333-1.19-.333-1.89 0-.688.11-1.312.333-1.873a4.02 4.02 0 0 1 .936-1.426 4.12 4.12 0 0 1 1.444-.901 5.298 5.298 0 0 1 1.872-.315 5.17 5.17 0 0 1 1.873.324c.56.216 1.04.519 1.443.91.403.39.715.866.937 1.426.221.56.332 1.178.332 1.855zm-6.125 0c0 .712.137 1.257.411 1.636.274.38.657.569 1.147.569s.866-.192 1.128-.578c.263-.385.394-.927.394-1.627s-.134-1.24-.402-1.619c-.269-.379-.648-.569-1.138-.569-.49 0-.87.19-1.137.57-.269.378-.403.918-.403 1.618zm12.968-1.138c0-.361-.103-.627-.307-.796-.204-.169-.481-.254-.831-.254-.233 0-.464.03-.691.088a1.743 1.743 0 0 0-.586.262v6.073a5.631 5.631 0 0 1-1.33.157c-.257 0-.488-.017-.692-.052a1.178 1.178 0 0 1-.516-.21 1.01 1.01 0 0 1-.324-.429c-.076-.18-.113-.417-.113-.708v-5.25c0-.316.067-.572.2-.77.135-.199.319-.38.552-.543.397-.28.895-.507 1.496-.682a7.153 7.153 0 0 1 2.004-.263c1.318 0 2.333.289 3.045.866.712.578 1.068 1.38 1.068 2.406v5.478a5.631 5.631 0 0 1-1.33.157c-.257 0-.488-.017-.692-.052a1.178 1.178 0 0 1-.516-.21 1.01 1.01 0 0 1-.324-.429c-.076-.18-.113-.417-.113-.708v-4.13zm4.847-3.114c0-.596.102-1.106.306-1.532.204-.426.482-.776.832-1.05s.76-.475 1.233-.603a5.755 5.755 0 0 1 1.514-.193c.863 0 1.5.114 1.908.341.408.228.612.616.612 1.164 0 .233-.05.443-.149.63-.099.187-.207.327-.323.42a8.018 8.018 0 0 0-.692-.149 4.99 4.99 0 0 0-.831-.061c-.502 0-.892.085-1.172.254-.28.169-.42.463-.42.884v.56h2.87c.07.128.137.288.2.48.065.193.097.406.097.64 0 .408-.09.702-.271.883-.181.181-.423.272-.726.272h-2.013v5.547a5.631 5.631 0 0 1-1.33.157c-.257 0-.487-.017-.691-.052a1.178 1.178 0 0 1-.516-.21 1.01 1.01 0 0 1-.324-.429c-.076-.18-.114-.417-.114-.708v-7.245zm11.988 8.785a6.137 6.137 0 0 1-1.917-.29 4.342 4.342 0 0 1-1.54-.866 4.012 4.012 0 0 1-1.032-1.452c-.251-.583-.376-1.266-.376-2.047 0-.77.125-1.433.376-1.987.25-.554.58-1.009.989-1.365a3.952 3.952 0 0 1 1.4-.787 5.218 5.218 0 0 1 1.61-.254 4.86 4.86 0 0 1 1.688.28c.508.187.945.443 1.313.77.367.327.653.717.857 1.172.204.456.307.951.307 1.488 0 .397-.111.7-.333.91-.222.21-.53.344-.927.402l-4.323.648c.128.385.39.674.788.866.396.193.851.289 1.365.289.478 0 .93-.061 1.356-.184a4.311 4.311 0 0 0 1.041-.428c.187.116.344.28.473.49.128.21.192.431.192.665 0 .525-.245.915-.735 1.172a3.896 3.896 0 0 1-1.26.402c-.467.07-.904.105-1.312.105zm-.49-6.878c-.28 0-.523.047-.727.14-.204.093-.37.213-.498.359a1.49 1.49 0 0 0-.29.49c-.063.18-.101.364-.113.551l2.993-.49c-.035-.233-.164-.467-.385-.7-.222-.233-.549-.35-.98-.35zm8.575 6.58a5.631 5.631 0 0 1-1.33.157c-.257 0-.488-.017-.692-.052a1.178 1.178 0 0 1-.516-.21 1.01 1.01 0 0 1-.324-.429c-.076-.18-.113-.417-.113-.708v-5.25c0-.269.05-.5.148-.692.1-.192.242-.364.429-.516.187-.152.417-.289.691-.411a7.487 7.487 0 0 1 1.864-.543 6.61 6.61 0 0 1 1.015-.078c.56 0 1.003.107 1.33.323.327.216.49.569.49 1.059 0 .163-.023.324-.07.481-.047.158-.105.3-.175.429a8.312 8.312 0 0 0-1.505.14c-.245.047-.475.096-.691.149-.216.052-.4.114-.551.183v5.968zm8.715.297a6.137 6.137 0 0 1-1.917-.288 4.342 4.342 0 0 1-1.54-.867 4.012 4.012 0 0 1-1.032-1.452c-.251-.583-.376-1.266-.376-2.047 0-.77.125-1.433.376-1.987.25-.554.58-1.009.989-1.365a3.952 3.952 0 0 1 1.4-.787 5.218 5.218 0 0 1 1.61-.254 4.86 4.86 0 0 1 1.688.28c.508.187.945.443 1.313.77.367.327.653.717.857 1.172.204.456.307.951.307 1.488 0 .397-.111.7-.333.91-.222.21-.53.344-.927.402l-4.323.648c.128.385.39.674.788.866.396.193.851.289 1.365.289.478 0 .93-.061 1.356-.184a4.311 4.311 0 0 0 1.041-.428c.187.116.344.28.473.49.128.21.192.431.192.665 0 .525-.245.915-.735 1.172a3.896 3.896 0 0 1-1.26.402c-.467.07-.904.105-1.312.105zm-.49-6.877c-.28 0-.523.047-.727.14-.204.093-.37.213-.498.359a1.49 1.49 0 0 0-.29.49c-.063.18-.101.364-.113.551l2.993-.49c-.035-.233-.164-.467-.385-.7-.222-.233-.549-.35-.98-.35zm10.99 1.207c0-.361-.103-.627-.307-.796-.204-.169-.481-.254-.831-.254-.233 0-.464.03-.691.088a1.743 1.743 0 0 0-.586.262v6.073a5.631 5.631 0 0 1-1.33.157c-.257 0-.488-.017-.692-.052a1.178 1.178 0 0 1-.516-.21 1.01 1.01 0 0 1-.324-.429c-.076-.18-.113-.417-.113-.708v-5.25c0-.316.067-.572.2-.77.135-.199.319-.38.552-.543.397-.28.895-.507 1.496-.682a7.153 7.153 0 0 1 2.004-.263c1.318 0 2.333.289 3.045.866.712.578 1.068 1.38 1.068 2.406v5.478a5.631 5.631 0 0 1-1.33.157c-.257 0-.488-.017-.692-.052a1.178 1.178 0 0 1-.516-.21 1.01 1.01 0 0 1-.324-.429c-.076-.18-.113-.417-.113-.708v-4.13zm9.607-1.032c-.292 0-.569.047-.831.14-.263.093-.49.23-.683.411a2.01 2.01 0 0 0-.463.674 2.355 2.355 0 0 0-.175.945c0 .723.207 1.266.62 1.627.415.362.92.543 1.515.543.35 0 .653-.04.91-.123a5.59 5.59 0 0 0 .682-.262c.233.163.408.341.525.534.117.192.175.423.175.691 0 .478-.227.849-.682 1.111-.455.263-1.085.394-1.89.394-.735 0-1.4-.108-1.995-.324a4.507 4.507 0 0 1-1.532-.91 4.027 4.027 0 0 1-.988-1.408 4.602 4.602 0 0 1-.35-1.82c0-.77.125-1.444.376-2.022a3.91 3.91 0 0 1 1.024-1.426c.431-.373.93-.653 1.496-.84a5.689 5.689 0 0 1 1.794-.28c.84 0 1.487.152 1.942.455.455.303.683.694.683 1.172 0 .222-.053.43-.158.622a2.166 2.166 0 0 1-.367.498 5.688 5.688 0 0 0-.718-.27 3.036 3.036 0 0 0-.91-.132zm7.77-2.345a4.86 4.86 0 0 1 1.689.28c.507.187.945.443 1.312.77.368.327.654.717.858 1.172.204.456.306.951.306 1.488 0 .397-.11.7-.332.91-.222.21-.531.344-.928.402l-4.322.648c.128.385.39.674.787.866.397.193.852.289 1.365.289.478 0 .93-.061 1.356-.184a4.311 4.311 0 0 0 1.042-.428c.186.116.344.28.472.49.128.21.193.431.193.665 0 .525-.245.915-.735 1.172a3.896 3.896 0 0 1-1.26.402c-.467.07-.905.105-1.313.105a6.137 6.137 0 0 1-1.916-.288 4.342 4.342 0 0 1-1.54-.867 4.012 4.012 0 0 1-1.033-1.452c-.25-.583-.376-1.266-.376-2.047 0-.77.125-1.433.376-1.987s.58-1.009.989-1.365a3.952 3.952 0 0 1 1.4-.787 5.218 5.218 0 0 1 1.61-.254zm0 2.17c-.28 0-.522.047-.726.14-.204.093-.37.213-.499.359a1.49 1.49 0 0 0-.289.49c-.064.18-.102.364-.113.551l2.992-.49c-.035-.233-.163-.467-.385-.7-.222-.233-.548-.35-.98-.35z"/>
</svg>
