<svg xmlns="http://www.w3.org/2000/svg" width="290" height="224" viewBox="0 0 290 224">
    <g fill="none" fill-rule="nonzero" style="mix-blend-mode:luminosity">
        <path fill="#137D9F" d="M4.36 69.282c5.569 14.864 9.903 30.248 14.305 45.489 4.693 16.244 4.706 33.335 6.474 49.933 1.058 10.002 3.134 19.641 9.751 27.592 4.634 5.562 10.191 9.307 17.088 11.469 9.607 3.011 20.059 3.073 29.477 6.589 2.18.813 4.385 1.91 5.832 3.8 1.201 1.573 1.773 3.548 2.569 5.294.709 1.553 1.904 2.172 3.419 2.336 4.622.499 10.558-2.282 15.356-3.13 1.013-.18 2.31-.37 3.202-.904.636-.382.618-.925.583-1.398-.265-3.667-.099-7.516-1.017-11.13-1.054-4.142-3.681-7.007-7.275-8.808-6.163-3.083-14.11-3.312-21.112-4.534-6.91-1.211-13.865-2.533-20.488-4.906-5.607-2.005-10.861-4.844-15.278-8.874-5.533-5.053-8.522-12.033-10.358-19.08-4.512-17.333-4.138-35.91-8.445-53.498-2.142-8.752-4.857-17.432-7.534-26.032-2.293-7.365-4.739-14.794-8.043-21.711-.93-1.948-2.065-4.57-4.134-5.616-1.005-.508-2.019-.415-2.988-.232-1.44.272-2.885.916-3.75 2.13-2.86 4.017.69 11.266 2.366 15.215"/>
        <path fill="#0ABBAB" d="M15.24 56.834c3.424 7.904 6.11 16.101 8.64 24.317 1.663 5.398 3.26 10.822 4.866 16.239 2.45 8.262 3.926 16.728 5.127 25.243 1.303 9.241 2.355 18.61 4.221 27.713 2.119 10.331 5.523 20.187 13.994 27.12 6.738 5.509 14.996 8.54 23.347 10.656 5.191 1.314 10.455 2.29 15.722 3.214 4.913.864 10.051 1.314 14.69 3.264 6.24 2.623 9.195 7.77 12.232 13.383 1.126 2.08 2.982 3.515 5.006 4.579 4.85 2.551 10.536 3.692 16.015 4.593.716.118 1.458.234 2.226.32 1.528.172 3.068.225 4.604.16.11 0 .221-.009.332-.016 1.078-.08 2.357-.147 3.306-.758.562-.362.544-.952.442-1.535-1.98-10.982-4.708-22.475-14.371-28.937-5.744-3.843-12.936-4.36-19.711-5.423-7.774-1.212-15.574-2.46-23.233-4.117-9.4-2.033-19.086-4.589-27.502-9.468-8.813-5.11-13.536-12.818-16.752-22.156-4.12-11.962-5.878-24.733-8.295-37.207-2.407-12.43-6.09-24.471-9.874-36.52-2.275-7.244-4.646-14.614-7.943-21.354-.961-1.964-2.073-3.915-3.705-5.451-1.175-1.112-2.635-2.213-4.231-2.59-1.018-.237-2.518.087-3.168.982-1.222 1.684-.123 4.28.528 5.983 1.014 2.644 2.281 5.205 3.49 7.766"/>
        <path fill="#B2CD0D" d="M22.79 48.17c3.492 7.052 6.08 14.488 8.47 21.96 1.649 5.168 3.218 10.38 4.808 15.57 2.573 8.405 4.312 17.015 6.028 25.628 1.875 9.406 3.855 18.859 6.755 27.955 1.707 5.35 3.782 10.69 6.75 15.517 3.03 4.927 7.572 8.476 12.59 11.224 10.222 5.595 21.945 8.297 33.28 10.556 6.072 1.21 12.182 2.216 18.294 3.2 5.7.919 11.597 1.43 16.846 4.018 8.326 4.095 13.116 12.053 17.544 19.831 1.502 2.639 3.471 4.905 5.68 6.92 4.847 4.422 9.977 7.932 16.219 10.191.78.3 1.579.548 2.391.743 1.418.305 2.912.512 4.376.22.085-.017.169-.038.25-.059 1.064-.282 1.538-.849 1.785-1.662.16-.524-.034-1.23-.31-1.96-5.056-13.39-10.023-28.54-21.849-37.235-6.104-4.489-13.44-5.111-20.825-6.177-9.171-1.319-18.364-2.646-27.456-4.32-11.635-2.143-23.649-4.61-34.47-9.632-5.165-2.4-10.052-5.699-13.461-10.346-2.918-3.98-5.132-8.559-7.008-13.075-4.83-11.629-7.753-24.005-10.863-36.245-2.977-11.719-6.693-23.156-10.512-34.607-2.141-6.418-4.314-12.963-7.342-18.913-.935-1.84-2.053-3.614-3.446-5.185-1.703-1.922-3.637-4.114-5.908-5.136-.918-.413-2.367-1.034-3.298-.479-2.143 1.275 3.767 9.778 4.685 11.508"/>
        <path fill="#EAE9F9" d="M31.546 44.344c3.658 6.327 6.292 13.12 8.69 19.99 1.759 5.029 3.42 10.13 5.08 15.187 2.78 8.473 4.783 17.234 7.041 25.863 2.548 9.739 5.553 19.431 9.448 28.688 2.18 5.176 4.649 10.385 7.961 14.984 3.811 5.29 9.277 8.857 15.198 11.396 12.525 5.368 26.343 7.814 39.708 10.042 7.019 1.17 14.063 2.182 21.104 3.186 5.437.775 11.278 1.062 16.395 3.193 10.08 4.199 16.337 14.059 21.656 23.046a105.953 105.953 0 0 0 5.444 8.248c3.663 5.053 7.541 11.51 13.317 14.335.55.272 1.137.542 1.697.66 1.186.257 2.088-.169 2.54-.86.039-.055.076-.113.11-.173.445-.873.273-2.26.092-3.157a10.702 10.702 0 0 0-.803-2.306c-6.895-14.719-15.548-30.76-29.004-40.011-6.022-4.139-12.744-4.875-19.989-5.816-9.172-1.192-18.388-2.167-27.527-3.456-11.73-1.656-23.898-3.526-34.892-8.21-10.71-4.566-17.13-12.904-21.345-23.39-4.53-11.265-6.882-23.325-9.964-35.097C60.54 89.395 56.28 78.64 52.043 67.8c-2.354-6.02-4.788-12.147-8.01-17.646a29.004 29.004 0 0 0-3.757-5.01c-2.665-2.884-5.585-5.698-8.937-7.757-1.418-.871-2.99-1.845-4.6-2.275-1.867-.5.392 2.646.668 3.058 1.378 2.06 2.842 4.057 4.135 6.174"/>
        <path fill="#FE9572" d="M43.74 45.821c4.477 5.966 8.051 12.452 11.045 19.228 2.147 4.862 3.942 9.973 5.854 14.888 3.215 8.256 4.8 17.238 6.67 25.971 2.105 9.842 4.385 19.826 7.986 29.173 2.003 5.193 4.299 10.255 8.082 14.48 4.12 4.6 9.322 7.733 15.073 9.884 11.837 4.419 24.75 5.85 37.235 7.215 6.543.719 13.098 1.33 19.64 2.06 5.511.616 11.527.846 16.776 2.753 10.388 3.767 18.6 12.977 25.585 21.123 2.358 2.752 4.781 5.457 7.198 8.146 5.745 6.385 11.089 15 19.71 17.77.882.284 1.828.533 2.77.544 1.617.015 3.597-.669 4.48-2.152.061-.098.116-.2.164-.305.704-1.592.017-3.315-.541-4.844-.341-.93-.947-1.889-1.532-2.686-6.408-8.735-14.35-16.723-22.58-23.9-8.677-7.575-18.03-14.719-28.13-20.094-3.443-1.83-7.084-3.561-10.91-4.54-3.564-.908-7.407-1.056-11.065-1.297-8.369-.55-16.78-.577-25.143-.88-10.537-.376-21.602-.827-31.644-4.404-5.036-1.793-9.68-4.695-13.236-8.716-3.288-3.718-4.802-8.651-5.696-13.422-2.09-11.135-1.204-22.687-1.83-34.003-.312-5.645-.936-11.317-2.44-16.78-1.382-5.023-3.722-9.717-6.077-14.318-2.975-5.822-6.305-11.612-10.369-16.638a29.914 29.914 0 0 0-4.606-4.536c-3.841-3.065-8.003-6.019-12.644-7.743-1.678-.623-3.54-1.131-5.256-1.326-2.492-.284-.243 2.589.31 3.28 1.654 2.067 3.478 3.991 5.121 6.066"/>
        <path fill="#F75F68" d="M58.633 41.54c5.942 5.497 11.238 11.568 15.425 18.417 2.749 4.496 5.41 9.444 6.812 14.47 2.371 8.502 1.766 17.887 1.545 26.814-.244 9.844-.597 19.85 1.027 29.426.877 5.168 2.807 9.936 6.779 13.61 3.73 3.453 8.244 5.77 13.108 7.156 10.24 2.915 21.262 2.664 31.807 2.546 5.665-.064 11.331-.19 16.996-.09 5.099.09 10.535.064 15.512 1.291 13.86 3.423 26.747 12.386 38.311 20.352 4.079 2.81 8.202 5.603 12.244 8.456 6.514 4.596 12.697 9.7 19.174 14.38 5.6 4.048 11.676 7.684 18.492 9.084 1.472.302 3.063.563 4.507.405 2.026-.221 5.03-.962 5.366-3.52.02-.146.027-.294.02-.442-.11-2.525-2.53-4.808-4.147-6.477a40.324 40.324 0 0 0-3.245-2.958c-11.636-9.656-24.873-17.81-38.075-25.394-13.493-7.74-27.448-15.047-41.868-20.676-8.03-3.134-15.727-5.27-24.426-5.189-7.313.072-14.605.973-21.86 1.656-8.995.848-18.587 1.777-27.403-.838-4.684-1.389-9.047-4.066-12.326-7.703-3.312-3.665-4.258-8.712-4.219-13.391.094-11.12 4.013-22.302 6.032-33.42.957-5.27 1.67-10.669 1.273-16.034-.385-5.21-2.261-9.677-4.594-14.242-3.172-6.214-6.926-12.272-11.451-17.492a31.867 31.867 0 0 0-5.117-4.724c-4.968-3.679-10.684-6.94-17.042-7.463-2.008-.165-4.36-.076-6.195.814-5.191 2.519 5.677 9.53 7.538 11.177"/>
        <path fill="#7158D1" d="M73.125 31.684c6.864 5.899 13.266 12.331 18.105 19.88 2.919 4.555 5.875 9.776 6.69 15.064 1.4 9.07-1.55 18.9-3.814 27.927-2.443 9.735-6.095 20.38-5.059 30.196.51 4.858 2.42 8.783 6.435 11.95a26.706 26.706 0 0 0 12.176 5.347c8.578 1.433 17.506-.254 25.98-1.644 8.89-1.453 18.1-3.219 27.138-2.213 6.409.712 12.705 3.233 18.668 5.547 8.988 3.489 17.771 7.519 26.424 11.724 5.526 2.683 11.063 5.411 16.518 8.236 10.846 5.615 21.43 11.783 32.162 17.647 7.926 4.33 16.338 9.044 25.227 10.911 1.234.259 2.6.447 3.834.199 2.61-.527 1.563-3.887.807-5.28a5.978 5.978 0 0 0-.374-.58c-2.28-3.231-5.783-5.697-9.01-7.864-1.505-1.012-3.086-1.994-4.649-2.946-14.847-9.048-30.48-17.056-46.234-24.558-14.558-6.933-29.403-13.66-44.652-18.827-7.554-2.56-14.646-4.534-22.685-3.93-6.574.492-13.045 1.961-19.486 3.233-8.06 1.592-16.696 3.307-24.88 1.472-4.41-.986-8.663-3.303-11.84-6.517-3.53-3.57-4.463-8.421-4.255-13.109.49-11.023 5.434-22.08 8.821-32.887 1.679-5.35 3.266-10.842 3.74-16.45.418-4.9-.449-9.1-2.583-13.44a67.486 67.486 0 0 0-11.37-16.426 54.549 54.549 0 0 0-5.147-4.76c-5.801-4.748-12.657-8.927-20.049-10.748-1.864-.458-4.366-.866-6.159.006-5.563 2.706 7.678 11.303 9.522 12.84"/>
        <path fill="#0ABBAB" d="M161.23 6.996c6.63 4.444 8.583 10.733 9.85 18.214 1.554 9.137 3.864 18.092 7.917 26.39 2.662 5.46 6.183 12.304 11.398 15.885 6.026 4.137 14.967 2.103 21.33.28 9.461-2.71 19.274-6.978 27.809-12.144 3.35-2.028 5.252-3.118 8.528-.75.465.33 1.055.804 1.694.472.491-.255.887-.93 1.272-1.561a31.15 31.15 0 0 1 2.828-3.972c.95-1.123 2.148-2.542 2.148-4.107 0-1.027-.505-1.75-.932-2.289-.743-.94-2.375-3.74-3.93-3.108-1.316.535-2.525 1.667-3.772 2.487-3.276 2.164-6.777 4.058-10.253 5.795-11.678 5.84-28.56 12.88-40.383 3.494-8.275-6.573-13.785-15.258-15.722-25.483-1.297-6.85-2.115-13.68-5.784-19.747-1.374-2.271-3.217-4.12-5.486-5.377-2.316-1.28-5.786-1.822-8.272-.506-2.16 1.147-2.148 4.614-.24 6.027z"/>
        <path fill="#FFD300" d="M148.228 8.576c-1.662.03-2.759 1.717-2.194 3.167a2 2 0 0 0 .486.697c3.669 3.304 6.715 7.545 8.299 12.172.697 2.04 1.26 4.147 1.787 6.25.997 3.973 2.026 7.968 2.952 11.956 1.03 4.43 1.995 8.914 3.103 13.32a202.35 202.35 0 0 0 1.55 5.787c1.704 5.93 3.797 11.818 6.615 17.28 2.077 4.03 4.55 7.504 9.34 8.457 4.836.961 10.17-.152 14.797-1.306 12.808-3.198 25.35-9.097 37.618-14.252 2.182-.915 4.702-2.25 6.96-2.03 1.883.185 3.655 1.149 5.459 2.047.379.188.796.381 1.199.425a.977.977 0 0 0 .81-.25c.377-.352.572-1.107.725-1.858.247-1.208.481-2.426.71-3.64.08-.424.159-.844.242-1.255.313-1.55.56-3.283.073-4.832a6.111 6.111 0 0 0-1.477-2.416c-1.336-1.419-3.342-3.874-5.65-3.387-1.734.366-3.385 1.3-4.993 2.061-3.616 1.711-7.288 3.331-10.926 4.978-4.332 1.961-8.738 3.869-13.184 5.481-6.78 2.456-14.969 5.248-22.344 3.954-6.448-1.137-10.656-6.883-13.89-11.942-4.265-6.67-6.744-14.224-8.491-21.982-.81-3.593-1.395-7.29-2.224-10.853-.72-3.093-1.675-6.171-3.124-8.94a17.47 17.47 0 0 0-4.53-5.534c-2.566-2.082-6.347-3.618-9.698-3.555z"/>
        <path fill="#FE9572" d="M135.115 14.18c-1.138-.109-3.181-.01-3.17 1.66.01.199.077.391.193.555 2.62 4.324 6.245 7.912 8.295 12.56.945 2.141 1.772 4.368 2.54 6.583a270.74 270.74 0 0 1 4.034 12.726c1.369 4.738 2.346 9.682 3.374 14.553.47 2.22.937 4.446 1.422 6.662 1.482 6.761 3.15 13.542 5.503 20.022 1.635 4.504 3.35 10.035 7.506 12.988 4.3 3.058 10.088 2.379 14.948 1.626 16.581-2.572 32.1-10.29 48.49-14.105 3.25-.756 6.927-1.847 10.17-1.038 2.667.666 5.213 2.16 7.773 3.217.491.204 1.029.38 1.523.406.35.018.671-.065.904-.347.317-.382.412-1.153.414-1.944 0-1.318-.074-2.646-.2-3.965-.042-.46-.099-.92-.15-1.364-.195-1.671-.51-3.438-1.276-4.94a9.18 9.18 0 0 0-1.94-2.484c-2.158-1.944-4.496-4.08-7.64-3.932-2.214.11-4.362.897-6.448 1.556-4.116 1.301-8.167 2.71-12.18 4.28-4.754 1.857-9.523 3.814-14.313 5.547-7.604 2.75-16.277 5.86-24.544 5.562-8.335-.299-11.711-6.99-14.874-13.536-4.363-9.032-6.935-18.848-9.138-28.674a380.312 380.312 0 0 0-2.975-12.341c-.84-3.234-1.78-6.496-3.152-9.477a22.034 22.034 0 0 0-4.03-5.956c-2.818-2.976-7.078-6.032-11.059-6.4z"/>
        <path fill="#EAE9F9" d="M120.483 16.554c-1.453-.592-3.492-1.385-5.023-.813a.337.337 0 0 0-.229.248c-.221 1.759 2.324 3.987 3.353 5.233 1.962 2.366 3.998 4.723 5.644 7.3a90.32 90.32 0 0 1 4.027 6.97 100.147 100.147 0 0 1 6.03 14.301c1.672 5.007 2.946 9.845 3.552 15.113.265 2.314.46 4.668.636 7.002.53 7.01.855 14.14 2.18 20.99.996 5.145 2.412 10.833 5.24 15.376 3.007 4.834 7.967 7.379 13.317 7.965 19.393 2.135 39.153-9.216 58.571-11.231 6.51-.676 12.877.847 18.825 3.436 5.783 2.515 11.31 6.351 17.277 8.524.7.254 1.312.397 1.72.302.286-.068.448-.289.388-.807-.07-.607-.462-1.616-.922-2.668a147.985 147.985 0 0 0-3.184-6.763c-.914-1.84-1.84-3.772-3.06-5.372a18.31 18.31 0 0 0-2.57-2.785c-3.026-2.607-6.308-5.188-10.434-5.575-6.919-.65-14.976 1.693-21.455 3.562-5.11 1.475-10.22 3.195-15.322 4.757-8.486 2.59-17.484 5.293-26.454 5.427-4.071.06-7.958-.836-10.916-3.79-2.849-2.845-4.37-6.898-5.883-10.518-4.523-10.813-7.347-22.281-10.21-33.677-1.218-4.858-2.744-9.642-4.16-14.448-1.067-3.627-2.173-7.29-3.645-10.72a32.355 32.355 0 0 0-3.926-6.79c-3.432-4.537-8.158-8.427-13.367-10.549z"/>
        <path fill="#1DAACC" d="M103.425 15.172c-1.965-1.04-4.203-2.12-6.484-2.39a3.241 3.241 0 0 0-.642-.018c-2.15.088 2.177 3.967 2.57 4.335 2.482 2.338 5.119 4.549 7.444 7.02a100.703 100.703 0 0 1 5.854 6.778c3.483 4.443 6.56 9.285 8.934 14.399 2.375 5.113 3.166 9.97 2.832 15.57-.144 2.414-.458 4.882-.827 7.29-1.127 7.35-2.945 14.744-3.784 22.111-.607 5.312-.61 10.665.392 15.986 1.12 5.96 4.023 10.579 9.147 13.43 10.095 5.607 23.242 3.013 34.393.528 10.258-2.285 21.398-6.528 32.028-5.786 12.966.905 26.023 7.292 37.461 12.909 6.758 3.318 13.43 6.906 20.1 10.442 5.249 2.784 10.556 5.9 16.041 7.965.973.367 2.066.814 3.127.83.497.008.815-.21.694-.8-.198-.976-.825-1.94-1.323-2.802-1.155-1.99-2.518-3.92-3.918-5.773-.501-.662-.997-1.297-1.49-1.908-1.69-2.101-3.483-4.169-5.465-5.973a53.803 53.803 0 0 0-4.777-3.857c-7.729-5.558-16.104-10.352-24.954-13.672-4.802-1.803-9.885-3.283-15.074-3.68-4.664-.356-9.452.415-13.968 1.346-5.107 1.053-10.212 2.487-15.29 3.804-8.535 2.216-17.304 4.39-26.197 4.338-4.23-.024-8.528-.854-12.05-3.306-3.789-2.644-5.876-6.42-7.415-10.554-4.382-11.785-5.265-24.497-6.5-37.131-.599-6.124-1.68-11.839-3.72-17.624-1.434-4.057-3.079-8.111-5.08-11.887a53.07 53.07 0 0 0-4.804-7.438c-4.614-5.997-10.657-10.992-17.255-14.482z"/>
        <path fill="#EAE9F9" d="M111.607 61.059c-.857 10.185-5.33 20.233-8.629 30.025-3.234 9.599-7.257 22.192-1.6 30.956 4.867 7.54 16.029 9.444 24.91 8.883 9.158-.579 18.07-3.087 27.017-4.937 4.166-.862 8.373-1.63 12.625-1.908 4.811-.313 9.21.438 13.827 1.772 17.03 4.928 33.354 12.828 49.131 20.683 12.157 6.055 24.165 12.496 36.226 18.79 4.614 2.41 9.231 4.82 13.94 7.046 2.818 1.33 5.819 2.887 8.911 3.417.784.135 1.419.052 1.475-.438.28-2.437-2.81-5.755-4.427-7.607-2.728-3.13-6.118-5.743-9.522-8.169-20.58-14.668-44.217-26.528-68.09-35.29-7.488-2.747-15.94-6.08-24.062-5.942-6.767.117-13.457 1.729-20.02 3.226-14.247 3.25-39.802 9.237-45.64-8.564-3.105-9.473-1.683-20.443-.186-30.554 1.406-9.511 4.244-20.062 2.38-29.53-1.484-7.54-6.53-14.966-11.53-20.77-5.786-6.711-13.274-12.035-21.33-15.776-2.25-1.044-4.827-2.136-7.36-2.218-4.307-.14-.79 3.352.663 4.58 2.842 2.403 6.074 4.347 8.946 6.68 7.102 5.77 13.685 12.33 18.279 20.178 2.927 5.005 4.555 9.665 4.066 15.467z"/>
    </g>
</svg>
