<svg xmlns="http://www.w3.org/2000/svg" width="241" height="196" viewBox="0 0 241 196">
    <g fill="none" fill-rule="nonzero" style="mix-blend-mode:luminosity">
        <path fill="#0AB7E0" d="M184.491 137.599c-33.69 1.897-19.083 43.429 9.964 57.7-25.695 0-85.03-23.677-85.03-52.627 0-28.951 2.846-57.493 28.54-57.493 25.696 0 46.526 23.469 46.526 52.42z"/>
        <path fill="#E16197" d="M240.454 69.675c0 33.78-18.692 46.17-38.822 46.17-20.13 0-36.45-27.383-36.45-61.163 0-33.779 18.693-46.169 38.823-46.169s36.45 27.383 36.45 61.162z"/>
        <path fill="#2E39A9" d="M166.787.443c46.532 4.593 64.016 64.035 60.738 96.546-3.278 32.51-21.988-4.318-68.52-8.912-46.53-4.594-38.834-15.597-35.556-48.107-33.073 6.904-3.193-44.122 43.338-39.527z"/>
        <path fill="#F4F3EF" d="M189.675 37.995c25.47 2.51 32.802 51.435 31.008 69.2-1.795 17.763-12.036-2.36-37.506-4.87-25.47-2.51-39.147-10.813-37.352-28.577 1.794-17.764 18.38-38.263 43.85-35.753z" opacity=".1"/>
        <path fill="#0AB7E0" d="M185.95 49.059c16.767 1.665 3.844 41.628 2.258 57.456-1.586 15.829-7.896-1.829-24.663-3.494-16.766-1.666-40.296-8.308-38.71-24.136 1.586-15.828 44.349-31.492 61.116-29.826z"/>
        <path fill="#9844AF" d="M222.264 104.258c17.547 31.136-.762 77.348-21.542 88.765-20.78 11.416-50.188-22.524-64.923-48.486-14.736-25.961 12.848-80.539 45.711-72.497 17.15 4.197 32.184 17.012 40.754 32.218z"/>
        <path fill="#F4F3EF" d="M219.468 148.546c.937 21.591-6.662 36.907-19.094 43.896-12.433 6.989-30.56-12.418-38.842-29.681-17.67-36.827 6.092-85.9 31.972-66.042 15.879 12.184 25.09 31.715 25.964 51.827z" opacity=".1"/>
        <path fill="#E2164B" d="M237.605 138.613c.95 21.663-9.265 42.925-19.348 44.042-13.91 1.54-17.807-15.379-18.215-29.323-.419-14.316 10.873-51.243 18.215-19.202 5.425 23.672 18.463-15.696 19.348 4.483z"/>
        <path fill="#FF612E" d="M193.778 142.89c-13.136 25.112-68.527 56.608-120.475 43.933-51.95-12.674 23.578-19.351 23.578-48.63 0-29.279 16.677-53.014 42.282-53.014 11.012 0 21.126 4.385 29.078 11.718 16.448 10.425 33.644 30.492 25.537 45.993z"/>
        <path fill="#FFCD00" d="M112.005 148.411c-29.383 7.37-72.315 4.678-64.334-17.498C60.87 94.243 92.806 69.72 132.31 74.66c15.543 1.943 30.417 14.007 37.824 25.228 17.034 25.804-13.296 37.278-58.129 48.524z"/>
        <path fill="#B2CD0D" d="M102.199 52.324c29.184 5.446 69.075 29.085 51.845 63.804-9.554 19.253-52.315 35.48-67.13 28.89-24.558-10.925-31.79-101.48 15.285-92.694z"/>
        <path fill="#0AB7E0" d="M123.712 123.953c-17.317 24.661-72.517 40.18-96.314 23.563-23.797-16.617-7.18-59.076 10.137-83.738C54.85 39.117 77.783 25.25 101.58 41.866c23.797 16.617 39.448 57.425 22.132 82.087z"/>
        <path fill="#2E39A9" d="M99.85 128.02c-22.055 20.509-74.72 29.05-90.91 11.737C-7.25 122.444.848 80.749 22.903 60.24c22.054-20.509 64.328-25.656 80.517-8.343 16.19 17.312 18.483 55.614-3.57 76.123z"/>
    </g>
</svg>
