<svg xmlns="http://www.w3.org/2000/svg" width="434" height="473" viewBox="0 0 434 473">
    <g fill="none" fill-rule="nonzero" style="mix-blend-mode:luminosity">
        <path fill="#F83C1E" d="M193.183 210.672L324.865 333.73 195.48 472.775 63.801 349.717z"/>
        <path fill="#423783" d="M126.744 155C106.45 155 90 138.869 90 118.97c0-19.066 15.146-34.8 34.463-35.962 2.346-.141 4.365 1.61 4.509 3.91.144 2.3-1.641 4.28-3.988 4.421-14.833.892-26.472 12.983-26.472 27.63 0 15.29 12.64 27.684 28.232 27.684 2.35 0 4.256 1.869 4.256 4.174 0 2.305-1.906 4.173-4.256 4.173z"/>
        <path fill="#2C99B0" d="M263.883 28.992l169.773 158.656-129.383 139.044L134.5 168.037z"/>
        <path fill="#D0E215" d="M135.236 222.612a4.407 4.407 0 0 1-5.83-2.225 4.424 4.424 0 0 1 2.22-5.842c13.653-6.136 25.526-15.73 34.438-27.774a4.405 4.405 0 0 1 5.308-1.419 22.204 22.204 0 0 0 8.923 1.856c12.335 0 22.335-10.02 22.335-22.383a22.378 22.378 0 0 0-11.217-19.418c-3.547-2.045-2.645-7.407 1.375-8.174 22.707-4.331 39.39-24.32 39.39-47.767 0-26.855-21.724-48.625-48.522-48.625-14.728 0-28.366 6.61-37.531 17.803a4.405 4.405 0 0 1-6.209.614 4.427 4.427 0 0 1-.612-6.222C150.128 39.818 166.258 32 183.656 32 215.326 32 241 57.729 241 89.466c0 27.711-19.712 51.33-46.563 56.452l1.375-8.174a31.221 31.221 0 0 1 15.64 27.081c0 17.245-13.95 31.224-31.157 31.224a31.01 31.01 0 0 1-12.452-2.594l1.764-4.051 3.544 2.632c-9.81 13.258-22.88 23.819-37.915 30.576zm9.732-170.572a4.426 4.426 0 0 1 1.539 6.059 4.406 4.406 0 0 1-6.046 1.542c-13.346-7.949-28.59-12.204-44.467-12.204-48.144 0-87.172 39.111-87.172 87.36 0 1.147.022 2.292.066 3.434a4.417 4.417 0 0 1-4.237 4.588 4.415 4.415 0 0 1-4.578-4.247A97.948 97.948 0 0 1 0 134.797c0-53.131 42.977-96.201 95.994-96.201 17.474 0 34.274 4.69 48.974 13.444z"/>
        <path fill="#E95272" d="M295.278 192C348.144 192 391 149.02 391 96S348.144 0 295.278 0c-15.371 0-30.23 3.64-43.616 10.523a4.216 4.216 0 0 0-1.82 5.668 4.192 4.192 0 0 0 5.651 1.826c12.206-6.277 25.754-9.596 39.785-9.596 48.229 0 87.325 39.21 87.325 87.579 0 48.369-39.096 87.579-87.325 87.579a4.204 4.204 0 0 0-4.198 4.21c0 2.326 1.88 4.211 4.198 4.211zm-62.837-23.58c17.3 15.111 39.42 23.58 62.837 23.58a4.204 4.204 0 0 0 4.199-4.21c0-2.326-1.88-4.211-4.199-4.211-21.37 0-41.537-7.721-57.322-21.509a4.19 4.19 0 0 0-5.924.41 4.219 4.219 0 0 0 .41 5.94z"/>
        <path fill="#F6B800" d="M237.482 205.95L369.164 329.01l-47.17 50.692-131.682-123.058z"/>
        <circle cx="86" cy="201" r="35" fill="#423783"/>
        <circle cx="134.5" cy="219.5" r="3.5" fill="#2C99B0"/>
        <path fill="#FFEAAB" d="M272.292 156.14a4.765 4.765 0 0 1-6.739-.008 4.765 4.765 0 0 1-.007-6.74 4.765 4.765 0 0 1 6.74.008 4.765 4.765 0 0 1 .006 6.74zm12.358-14.556a4.765 4.765 0 0 1-6.74-.008 4.765 4.765 0 0 1-.006-6.739 4.765 4.765 0 0 1 6.739.007 4.765 4.765 0 0 1 .007 6.74zm15.147-15.147a4.765 4.765 0 0 1-6.739-.008 4.765 4.765 0 0 1-.007-6.739 4.765 4.765 0 0 1 6.74.007 4.765 4.765 0 0 1 .006 6.74zM316 110.197a4.765 4.765 0 0 1-6.739-.007 4.765 4.765 0 0 1-.007-6.74 4.765 4.765 0 0 1 6.74.007 4.765 4.765 0 0 1 .006 6.74zm-32.893 56.757c-.93.93-2.438.927-3.37-.004a2.383 2.383 0 0 1-.003-3.37 2.383 2.383 0 0 1 3.37.004c.93.931.932 2.44.003 3.37zm14.949-14.95c-.93.93-2.438.928-3.37-.003a2.383 2.383 0 0 1-.003-3.37 2.383 2.383 0 0 1 3.37.004c.93.931.932 2.44.003 3.37zm14.95-14.949c-.93.93-2.439.928-3.37-.003a2.383 2.383 0 0 1-.004-3.37 2.383 2.383 0 0 1 3.37.004c.931.931.933 2.44.003 3.37zm14.918-14.935c-.93.93-2.438.928-3.37-.003a2.383 2.383 0 0 1-.003-3.37 2.383 2.383 0 0 1 3.37.004c.93.931.932 2.44.003 3.37z"/>
    </g>
</svg>
