<svg xmlns="http://www.w3.org/2000/svg" width="197" height="223" viewBox="0 0 197 223">
    <g fill="none" fill-rule="evenodd" stroke-width=".697" style="mix-blend-mode:luminosity">
        <path stroke="#5BE7C3" d="M72.51 81.22c-.011-2.935-4.449-6.237-6.345-7.939-3.748-3.366-7.646-6.475-11.508-9.633-3.862-3.158-7.734-6.308-11.417-9.776-2.39-2.25-5.2-4.785-6.822-8-3.455-6.849 7.437-5.831 10.259-5.981 7.177-.383 15.41-.208 22.138-3.775 4.016-2.13 5.618-5.7 4.755-10.905-.278-1.692-1.1-3.64-.403-5.29.744-1.76 2.457-2.776 3.878-3.458 5.185-2.483 11.146-2.77 16.632-3.082 5.915-.343 11.886-.242 17.76-.269 2.49-.011 5.091-1.113 7.463-2.008 3.11-1.174 6.182-2.493 9.265-3.767 6.784-2.798 13.774-5.745 20.95-6.456 4.495-.445 9.407.157 12.899 4.03 1.753 1.944 2.67 4.834 3.684 7.401 1.227 3.102 2.405 6.234 3.711 9.287 4.207 9.833 10.215 19.442 19.965 19.924 1.475.073 2.923-.164 4.391-.208.935-.028 1.767.25 2.115 1.455.874 3.021-1.873 7.79-2.999 10.188-2.465 5.247-5.246 10.26-7.85 15.401-1.723 3.401-4.706 8.048-4.737 12.18-.028 3.681 3.948 6.342 6.112 8.156 2.029 1.697 5.704 4.073 5.926 7.527.108 1.674-.789 3.062-1.725 4.14-1.641 1.883-3.532 3.212-5.008 5.36-2.421 3.526-4.444 8.377-4.115 13.128.228 3.292 1.753 5.448 3.693 7.508.815.867 1.477 1.48 1.52 2.886.07 2.234-.641 4.598-1.226 6.669-2.094 7.412-5.068 14.578-8.376 21.27-1.652 3.344-3.438 6.678-5.63 9.53-1.435 1.874-3.371 4.103-5.56 4.1-2.536 0-5.218-1.126-7.682-1.968-4.603-1.575-9.15-3.395-13.678-5.262a540.255 540.255 0 0 1-31.123-14.01c-7.238-3.542-14.63-7.09-21.435-11.798a24.682 24.682 0 0 1-3.74-3.22c-1.242-1.278-2.781-1.85-4.343-2.276-9.69-2.647-20.305-.615-30.035.659-2.47.323-4.94.647-7.416.873-2.13.194-4.678.752-6.747-.086-4.078-1.648-.513-7.722.994-10.197 5.305-8.715 12.15-16.088 18.496-23.615 3.016-3.585 6.056-7.16 8.909-10.948 1.485-1.969 4.414-5.171 4.405-7.745z"/>
        <path stroke="#5ACEF2" d="M74.968 80.411c-1.634-3.108-4.5-5.405-6.88-7.567-3.425-3.112-6.956-6.051-10.435-9.075-3.29-2.86-6.586-5.752-9.632-9-1.858-1.98-4.189-4.348-5.068-7.277-1.909-6.348 8.358-5.385 10.893-5.551 6.302-.411 13.446-.505 19.276-3.848 3.64-2.087 5.135-5.549 4.359-10.355-.268-1.662-.752-3.082-.14-4.736.708-1.914 2.336-3.108 3.83-3.95 4.675-2.64 10.202-3.2 15.27-3.667 5.237-.482 10.693-.822 15.761-.47 2.027.141 4.36-.656 6.365-1.267 3.086-.942 6.14-2.029 9.212-3.039 6.24-2.055 12.643-4.034 19.135-4.26 4.687-.162 9.574.72 13.474 4.128 3.952 3.457 5.705 8.814 7.897 13.908 3.785 8.806 8.897 19.512 17.653 21.373 1.328.282 2.604.129 3.93.198.682.035 1.459.147 1.805.971.898 2.14-1.563 6.054-2.391 7.694-2.288 4.53-4.86 8.84-7.258 13.283-1.904 3.528-4.318 7.449-5.055 11.631-.894 5.076 4.947 8.687 7 12.26 3.561 6.198-3.185 9.729-6.51 12.683-3.82 3.392-6.972 9.58-3.549 14.83 1.31 2.006 2.921 3.202 3.506 5.821.915 4.096.223 8.777-.519 12.826-1.118 6.086-2.887 12.107-5.293 17.608-1.723 3.938-4.582 10.114-8.769 9.65-2.818-.309-5.684-1.438-8.428-2.436-4.11-1.494-8.167-3.197-12.202-4.966a347.899 347.899 0 0 1-27.563-13.5c-6.163-3.37-23.354-17.146-24.648-17.637-3.857-1.464-8.242-1.207-12.218-.98-5.29.302-10.553 1.082-15.811 1.806-2.504.342-5.02.761-7.536.93-1.791.12-4.143.222-5.712-1.054-3.063-2.49.349-8.19 1.76-10.6 4.322-7.392 9.79-13.793 14.917-20.337 2.516-3.213 5.07-6.422 7.354-9.893.92-1.401 3.23-4.215 2.22-6.135z"/>
        <path stroke="#5BE7C3" d="M76.305 78.276C71.83 72.07 65.653 67.454 60.323 62.272c-2.676-2.603-5.368-5.276-7.676-8.375-1.2-1.612-2.7-3.65-2.93-5.897-.618-6.01 8.662-5.197 11.44-5.425 5.37-.443 11.438-.779 16.31-3.846 2.977-1.874 4.443-4.952 3.886-8.996-.246-1.795-.63-3.32 0-5.081.64-1.786 1.971-3.045 3.32-3.99 3.874-2.715 8.689-3.584 13.05-4.23a86.53 86.53 0 0 1 15.426-.88c4.513.144 9.004-1.48 13.41-2.551 5.838-1.418 11.781-2.656 17.754-2.47 4.718.15 9.472 1.318 13.505 4.422 4.098 3.162 6.562 7.895 8.783 13.001 3.358 7.72 7.543 18.066 14.91 20.998 1.072.427 2.07.474 3.175.548.537.036 1.23.047 1.497.73.64 1.644-1.728 4.832-2.389 5.943-2.109 3.546-4.395 6.933-6.557 10.432-2.018 3.267-4.217 6.671-5.47 10.5-1.995 6.097 4.383 9.662 4.204 15.472-.111 3.607-2.943 6.194-5.185 7.984-2.761 2.2-6.737 3.647-8.119 7.662-1.029 2.991.586 4.732 1.83 7.002 2.108 3.845 2.252 9.058 2.032 13.51-.296 6.015-1.451 12.119-3.418 17.648-.891 2.506-1.983 5.113-3.59 7.06-1.507 1.824-2.932 2.292-4.945 1.918-6.16-1.145-12.381-4.336-18.29-7.187-7.422-3.583-14.743-7.537-21.845-11.987-4.843-3.035-9.795-6.245-14.046-10.438-1.108-1.093-2.242-2.28-3.052-3.722-.613-1.084-.873-1.978-1.905-2.597-3.06-1.833-7.315-1.354-10.593-1.163-5.242.303-10.458 1.11-15.668 1.838-3.04.427-8.766 1.772-11.194-1.453-2.095-2.784.433-7.53 1.725-9.983 3.267-6.203 7.47-11.646 11.368-17.251 1.787-2.569 3.644-5.157 5.12-8.013.377-.728.981-1.693 1.085-2.578.116-1.013-.427-1.787-.976-2.551z"/>
        <path stroke="#5ACEF2" d="M77.114 79.968c-4.113-5.507-9.068-10.032-13.484-15.185-1.98-2.311-3.98-4.735-5.488-7.554-.811-1.516-1.673-3.424-1.45-5.308.643-5.408 8.235-4.92 11.303-5.237 4.558-.465 9.794-.933 13.824-3.85 2.64-1.91 3.63-4.73 3.138-8.368-.53-3.902.653-6.735 3.346-8.912 3.375-2.727 7.636-3.838 11.556-4.628a64.838 64.838 0 0 1 14.287-1.254c4.652.11 9.16-.85 13.78-1.474 6.128-.827 12.452-1.234 18.51.46 5.275 1.476 10.039 4.727 13.61 9.756 3.73 5.248 5.578 11.86 8.607 17.666 1.889 3.622 4.524 8.412 8.054 9.82 1.177.47 3.323-.164 2.383 2.146-.538 1.321-1.544 2.48-2.339 3.56-1.284 1.745-2.61 3.442-3.916 5.163-2.783 3.669-5.763 7.416-7.85 11.76-2.628 5.47 1.28 9.68.803 15.225-.256 2.985-1.941 5.367-3.725 7.238-1.154 1.212-2.416 2.262-3.705 3.241-1.346 1.024-2.94 1.803-4.113 3.126-1.673 1.882-.947 4.11-.633 6.544.552 4.277.673 8.621.36 12.934-.381 5.287-1.277 10.725-3.164 15.53-.734 1.87-1.664 3.853-3.045 5.107s-2.81 1.168-4.392.79c-4.694-1.116-9.378-3.712-13.831-6.173-5.573-3.08-11.037-6.524-16.254-10.44-3.602-2.705-7.215-5.626-10.228-9.292-.876-1.067-1.71-2.21-2.384-3.485-.463-.875-.711-2.003-1.382-2.661-2.098-2.052-6.311-1.44-8.772-1.32-4.912.238-9.746 1.368-14.65 1.643-2.678.15-6.87.528-8.836-2.278-1.85-2.638-.175-6.793.93-9.334 2.172-4.998 5.09-9.45 7.704-14.096 1.075-1.912 2.254-3.912 2.95-6.095.62-1.945-.45-3.352-1.504-4.765z"/>
        <path stroke="#FF8062" d="M78.315 80.264c-3.281-4.806-7.238-9.073-10.543-13.957-1.935-2.861-5.267-7.67-3.77-11.703 1.641-4.432 7.363-4.552 10.67-4.91 3.937-.424 8.56-1.005 11.93-3.772 1.065-.875 1.972-2.033 2.357-3.558.412-1.632-.038-3.06-.097-4.694-.123-3.428 1.557-6.18 3.78-8.07 3.142-2.671 7.071-3.935 10.782-4.815a54.291 54.291 0 0 1 12.762-1.462c4.093.017 8.142-.094 12.24-.221 5.358-.17 10.791.104 15.989 1.837 5.12 1.71 9.775 4.912 13.431 9.622 3.568 4.597 5.974 10.215 8.082 15.938 1.196 3.248 3.217 8.102 6.07 9.743 1.269.73 2.514.68 1.165 2.58-1.7 2.39-3.989 4.31-5.956 6.354-2.838 2.952-5.748 5.961-8.13 9.47-1.522 2.242-2.2 4.416-2.095 7.318.081 2.21.448 4.397.263 6.616-.435 5.208-3.803 8.779-6.78 12.105-1.915 2.138-3.664 3.77-4.65 6.812-1.166 3.596-1.656 7.509-2.435 11.242-.856 4.1-1.845 8.365-3.713 11.976-1.663 3.216-3.686 4.657-6.714 3.791-4.722-1.35-9.376-4.675-13.568-7.752-4.267-3.13-8.46-6.65-11.996-10.952-1.91-2.323-3.212-5.051-4.907-7.547-2.133-3.134-6.957-1.947-9.824-1.682-4.759.44-19.734 3.736-18.352-6.937.577-4.454 2.848-8.565 4.51-12.496.688-1.632 1.684-3.59 1.84-5.459.17-2.036-1.354-3.97-2.34-5.417z"/>
        <path stroke="#F1B170" d="M80.146 81.56c-2.525-4.374-5.546-8.505-7.711-13.228-1.406-3.06-2.785-7.146-.973-10.383 2.046-3.652 6.557-4.504 9.872-4.97 3.415-.478 7.492-.881 10.283-3.65.888-.883 1.62-2.073 1.756-3.497.132-1.366-.24-2.733-.116-4.124.275-3.124 1.834-5.697 3.844-7.564 5.946-5.523 14.795-6.75 21.97-6.895 3.59-.072 7.285.305 10.9.575 4.689.35 9.385 1.101 13.858 2.913 9.509 3.85 15.882 12.387 20.334 23.011 1.4 3.344 2.473 6.963 4.668 9.65 1.132 1.388.885 2.384-.272 3.65-1.81 1.978-4.016 3.49-6.024 5.14-2.856 2.348-5.773 4.73-8.299 7.542-1.74 1.939-2.976 3.806-3.351 6.713-.268 2.073-.206 4.185-.367 6.27-.306 3.962-1.355 7.893-3.212 11.18-1.475 2.604-3.231 4.971-5.047 7.228-2.36 2.939-4.356 5.924-6.148 9.412-2.376 4.616-5.714 13.132-11.31 10.878-6.174-2.486-11.96-8.805-15.92-14.927-1.33-2.055-2.421-4.576-4.215-6.092-2.685-2.266-5.41-2.186-8.603-2.177-4.782.013-15.187 1.274-15.299-7.43-.044-3.448 1.184-6.708 1.772-10.025.663-3.715-.666-6.22-2.39-9.2z"/>
        <path stroke="#5BE7C3" d="M81.49 81.254c-2.465-5.693-7.991-15.047-3.788-21.378 2.22-3.346 6.147-4.603 9.442-5.352 2.651-.606 5.848-.834 7.851-3.403 1.473-1.888.82-4.637 1.383-7.002.7-2.931 2.307-5.33 4.282-7.132 5.518-5.039 13.19-6.585 19.829-6.914 6.894-.34 14.49 1.254 20.978 4.322 8.089 3.826 14.15 11.071 18.387 20.246.782 1.693 1.493 3.431 2.243 5.146.505 1.15 1.253 2.262 1.65 3.471.662 2.017-.118 3.665-1.368 4.98-1.798 1.892-4.008 3.239-6.058 4.659-2.804 1.943-5.67 3.852-8.278 6.132-1.753 1.534-3.588 3.187-4.215 5.848-.428 1.816-.517 3.739-.501 5.62.033 4.03-.14 7.291-1.67 10.984-2.519 6.062-6.392 11.512-10.483 16.048-3.211 3.56-8.293 9.089-12.971 6.709-4.198-2.131-6.654-7.232-9.42-11.355-1.344-2.005-2.854-3.836-4.63-5.262-2.237-1.798-4.344-2.552-6.995-2.846-4.462-.495-11.19-.624-12.57-7.204-.509-2.429-.218-4.944-.485-7.404-.35-3.252-1.37-6.041-2.613-8.913z"/>
        <path stroke="#FF8062" d="M83.998 81.38c-1.775-6.286-4.107-14.209.18-19.796 2.076-2.707 4.997-4.22 7.824-5.35 2.024-.81 5.239-1.05 6.48-3.54.912-1.834 1.038-4.363 1.863-6.327 1.133-2.701 2.85-4.925 4.864-6.667 5.247-4.537 12.08-6.29 18.313-6.792 13.541-1.09 27.32 7.586 34.566 21.86 2.16 4.256 4.95 8.785 1.458 13.132-3.812 4.742-9.555 6.964-14.105 10.333-1.738 1.287-3.954 2.834-4.923 5.163-.584 1.4-.624 3.157-.65 4.698-.07 3.926-.336 7.457-1.623 11.12-1.988 5.662-5.157 10.885-8.748 15.163-3.132 3.73-7.598 8.114-12.146 5.425-3.488-2.067-5.7-6.453-8.41-9.687-3.015-3.601-6.744-6.028-10.84-7.214-3.983-1.15-8.353-1.926-10.453-6.814-.72-1.677-1.472-3.848-1.742-5.704a67.943 67.943 0 0 0-1.908-9.003z"/>
        <path stroke="#F1B170" d="M87.781 81.552c-.817-6.249-.908-12.764 2.888-17.689 1.772-2.297 4.011-3.93 6.276-5.409 1.666-1.088 3.387-2.006 4.631-3.79 1.153-1.651 2.03-3.57 3.143-5.264 1.468-2.246 3.225-4.19 5.203-5.759 4.958-3.923 10.99-5.758 16.76-6.394 2.793-.31 5.823-.47 8.597.373 2.68.813 5.33 2.1 7.793 3.6 5.237 3.186 9.776 7.851 13.067 13.75 2.256 4.046 3.476 7.98.554 12.084-3.294 4.626-8.459 7.179-12.715 10.182-2.92 2.06-6.192 4.078-6.738 8.454-.434 3.483-.787 6.788-1.91 10.08-1.673 4.855-4.131 9.253-7.23 12.933-2.835 3.353-6.421 6.198-10.476 4.407-3.212-1.421-5.704-4.605-8.51-6.882-3.128-2.542-6.565-3.944-10.184-5.071-3.252-1.017-6.314-2.58-8.416-5.898-.43-.678-.882-1.416-1.213-2.174-.424-.968-.39-1.928-.474-3.012-.216-2.863-.677-5.693-1.046-8.521z"/>
        <path stroke="#5BE7C3" d="M90.118 81.498c.07-6.03 1.243-11.728 4.457-16.427 1.374-2.01 3.015-3.666 4.527-5.508 1.218-1.485 2.368-2.865 3.768-4.088 3.32-2.898 6.02-6.647 9.549-9.228 4.71-3.449 10.107-5.356 15.461-6.118 2.615-.373 5.316-.503 7.961-.082 2.272.361 4.448 1.63 6.466 2.928 3.956 2.542 7.797 6.155 10.366 10.727 5.663 10.078-5.502 17.405-11.233 21.696-2.635 1.974-6.662 4.26-7.742 8.17-.772 2.794-1.242 5.634-2.236 8.341-2.67 7.27-8.088 15.82-15.31 14.682-3.09-.487-5.907-2.462-8.792-3.789-2.97-1.366-6.036-2.127-9.124-2.963-2.885-.78-5.185-1.89-7.049-4.868-.89-1.422-.812-3.125-.891-4.87-.13-2.865-.21-5.747-.178-8.603z"/>
        <path stroke="#5ACEF2" d="M93.618 79.98c1.16-9.006 5.47-18.837 11.805-24.067 7.453-6.152 15.527-11.333 24.431-12.822 4.129-.69 8.651-1.03 12.547 1.228 2.964 1.717 6.408 4.285 8.04 7.895 3.991 8.83-4.887 15.86-9.946 19.946-2.723 2.2-6.19 4.343-8.243 7.555-1.19 1.862-1.799 4.326-2.76 6.37-2.914 6.199-7.71 11.198-13.685 12.092-2.762.413-5.545-.098-8.287-.504-2.806-.416-5.647-.641-8.436-1.221-2.227-.463-4.85-1.248-5.67-4.16-1.034-3.671-.27-8.635.204-12.312z"/>
        <path stroke="#F1B170" d="M96.653 78.889c1.699-8.532 5.296-16.855 11.343-21.948 3.207-2.701 6.93-4.566 10.503-6.408 4.052-2.088 8.285-3.708 12.608-4.512 5.382-1.002 14.1-1.904 16.913 5.623 2.79 7.472-4.263 14.085-8.434 17.853-2.674 2.414-5.536 4.63-8.091 7.27-1.386 1.43-2.453 3.083-3.625 4.761-3.24 4.65-7.86 8.33-12.569 10.295-4.563 1.905-10.209 2.749-15.026 2.12-2.079-.271-3.564-1.184-4.193-3.78-.871-3.607-.131-7.75.571-11.274z"/>
        <path stroke="#FF8062" d="M99.45 76.15c1.672-7.577 5.278-14.497 10.537-19.045 5.895-5.097 13.486-7.93 20.463-9.37 3.709-.765 11.745-2.84 13.636 3.097 1.89 5.937-3.575 11.787-6.72 15.008-3.817 3.903-7.933 7.672-12.044 11.173-3.571 3.045-7.382 6.158-11.25 8.51a36.443 36.443 0 0 1-6.792 3.254c-1.73.61-3.93 1.521-5.745 1.067-4.576-1.148-2.884-10.072-2.084-13.695z"/>
        <path stroke="#5ACEF2" d="M102.293 73.98c3.66-14.111 15.253-21.052 26.416-23.47 2.593-.562 9.865-2.587 11.315 1.724 1.405 4.18-3.064 9.136-5.156 11.484-6.482 7.277-14.49 12.673-22.08 18.018-2.368 1.668-6.64 5.289-9.58 3.619-3.19-1.817-1.673-8.449-.915-11.375z"/>
        <path stroke="#5ACEF2" d="M106.459 71.062c3.265-10.174 12.763-16.01 21.494-17.933 2.14-.47 7.57-1.936 9.19.903 1.5 2.626-2.078 6.432-3.416 7.944-2.98 3.367-6.51 6.142-10 8.808-3.225 2.467-6.485 4.996-9.879 7.082-1.787 1.098-5.14 3.442-7.172 1.746-2.187-1.824-.942-6.291-.217-8.55z"/>
        <path stroke="#5BE7C3" d="M110.453 68.242c2.456-6.696 9.034-11.044 14.836-12.49 1.562-.387 4.936-1.394 6.253.395 1.213 1.646-.741 4.06-1.609 5.176-3.844 4.942-9.473 9.357-14.63 12.069-1.297.681-3.628 2.02-4.962.644-1.369-1.413-.452-4.256.112-5.794z"/>
        <path stroke="#F1B170" d="M115.568 65.963c1.305-3.24 4.716-5.685 7.541-6.463 1.989-.547 4.379-.075 2.646 2.746-1.722 2.799-4.916 5.355-7.623 6.489-2.066.864-3.685.011-2.564-2.772z"/>
        <path stroke="#FF8062" d="M2.84 88.943C2.75 82.236-.129 75.266 1.293 68.431c1.168-5.612 7.047-6.081 10.574-8.624 2.803-2.02 4.393-5.6 5.909-9.033 1.362-3.083 2.585-6.258 4.02-9.29.928-1.96 2.523-5.81 4.537-5.88 1.928-.066 3.696 2.933 4.816 4.706 1.46 2.312 2.755 4.776 4.173 7.124 2.39 3.96 5.257 6.892 8.54 9.667a289.997 289.997 0 0 0 11.393 9.148c2.842 2.172 5.703 4.328 8.434 6.715 1.713 1.497 5.495 4.307 5.512 7.068.008 1.318-1 2.777-1.68 3.83-1.15 1.782-2.462 3.412-3.777 5.007-2.45 2.97-5.004 5.806-7.53 8.676-3.28 3.724-6.411 7.388-9.294 11.617-2.98 4.377-5.827 8.898-8.732 13.357-1.968 3.021-3.933 6.414-6.771 8.268-3.555 2.317-6.473-.126-10.068-.155-3.092-.025-2.864-8.895-3.257-11.362-.394-2.497-1.264-4.82-1.6-7.323-.42-3.124-.426-6.32-.53-9.478-.125-3.862-.174-7.539-3.509-9.011-1.897-.837-3.95-1.013-5.914-1.514-1.273-.326-3.673-.882-3.7-3z"/>
        <path stroke="#5BE7C3" d="M4.886 87.72c-.325-5.552-2.242-12.657-.429-18.388 1.55-4.897 6.394-5.532 9.657-8.105 2.693-2.122 3.892-5.594 5.238-9.005 1.08-2.736 2.128-5.499 3.354-8.148.903-1.952 2.283-5.248 4.161-5.652 1.69-.363 3.5 2.547 4.448 4.027 1.384 2.16 2.567 4.508 3.788 6.805 2.147 4.036 4.346 7.665 7.488 10.63 3.156 2.977 6.609 5.203 10.098 7.52 2.73 1.813 5.447 3.679 8.04 5.772 1.933 1.558 4.71 3.553 5.595 6.332.7 2.198-2.85 5.846-3.897 7.133-2.154 2.648-4.437 5.133-6.725 7.602-2.788 3.01-5.665 5.642-8.128 9.075-4.404 6.138-8.086 13.782-13.753 18.344-3.418 2.752-7.222 3.455-11.024 3.044-1.505-.163-1.866-2.758-2.056-4.271-.316-2.514-.355-5.071-.598-7.596-.227-2.362-.732-4.607-1.138-6.924-.412-2.348-.527-4.753-.83-7.117-.188-1.468-.373-3.175-1.194-4.355-.85-1.221-2.25-1.733-3.475-2.122-2.3-.723-8.39-.683-8.62-4.601z"/>
        <path stroke="#5ACEF2" d="M5.672 85.814c-.553-5.143-1.328-11.55.927-16.288 1.842-3.875 5.772-4.71 8.579-7.235 2.335-2.1 3.217-5.439 4.375-8.542.951-2.545 1.907-5.101 3.06-7.523.874-1.837 2-4.327 3.736-4.968 1.484-.548 3.16 1.905 3.983 3.126 1.4 2.08 2.542 4.412 3.676 6.712 1.856 3.765 3.563 7.786 6.204 10.848 2.566 2.97 5.614 4.725 8.719 6.697 2.378 1.51 4.742 3.08 6.983 4.881 1.72 1.383 3.853 3.021 4.75 5.322.775 1.984-1.216 4.332-2.21 5.732-1.643 2.31-3.466 4.429-5.263 6.556-1.94 2.296-4.089 4.413-5.966 6.765-3.948 4.95-7.101 10.429-11.967 14.22-3.15 2.457-7.39 4.688-11.116 4.287-2.678-.29-2.502-7.495-2.76-9.797-.422-3.764-1.24-7.72-2.537-11.187-1.114-2.97-3.763-3.887-6.199-4.554-1.526-.418-3.126-.644-4.602-1.29-1.708-.75-2.14-1.606-2.372-3.762z"/>
        <path stroke="#F1B170" d="M8.012 83.592c-.322-4.297-.25-9.378 1.836-13.095 1.826-3.256 5.08-4.113 7.393-6.678 1.805-2.001 2.515-5.264 3.486-7.91 1.186-3.235 2.85-9.211 5.843-10.429 2.785-1.131 5.697 6.1 6.706 8.255 1.596 3.413 2.93 7.155 4.867 10.307 1.667 2.713 3.9 4.213 6.271 5.825 3.023 2.058 7.612 4.5 9.228 8.511 1.205 2.99-2.713 7.435-4.05 9.506-1.4 2.164-2.453 4.728-3.897 6.816-2.278 3.294-5.97 5.946-9.018 7.97-2.964 1.969-6.812 4.148-10.174 4.018-2.21-.085-2.63-4.28-3.101-6.33-.675-2.913-1.573-5.523-3.502-7.505-1.964-2.017-4.278-2.967-6.71-3.799-1.25-.424-2.674-.755-3.791-1.611-1.234-.932-1.263-2.2-1.387-3.851z"/>
        <path stroke="#FF8062" d="M10.66 81.247c.017-3.72.707-7.685 2.755-10.554 1.704-2.39 4.373-3.189 6.005-5.632 1.293-1.934 1.951-4.649 2.817-6.894 1.058-2.753 2.555-7.56 5.187-8.516 2.57-.93 4.842 4.366 5.827 6.461 1.443 3.073 2.61 6.33 4.066 9.394 1.14 2.404 2.535 3.953 4.392 5.503 2.18 1.82 5.22 3.836 6.385 6.847.839 2.18-1.193 5.663-1.93 7.583-.495 1.29-.948 2.6-1.197 3.999-.193 1.088-.213 2.096-.774 3.03-1.413 2.352-4.51 2.66-6.613 3.434-2.792 1.029-5.754 2.198-8.675 2.421-1.796.14-2.712-1.898-3.737-3.332-1.211-1.695-2.926-2.914-4.423-4.193-1.977-1.69-4.127-2.742-6.352-3.819-1.004-.486-2.183-.962-2.96-1.928-.812-1.002-.78-2.462-.774-3.804z"/>
        <path stroke="#5ACEF2" d="M13.52 78.258c.353-3.178 1.458-6.216 3.324-8.463 1.43-1.725 3.329-2.696 4.477-4.768 1.069-1.932 1.814-4.13 2.698-6.195.934-2.184 2.323-5.833 4.48-6.428 2.323-.64 4.113 3.042 5.104 5.083 1.252 2.579 2.204 5.353 3.323 8.02a22.955 22.955 0 0 0 3.192 5.396c1.335 1.674 3.145 3.277 3.82 5.579.597 2.039-.52 4.505-.717 6.573-.211 2.209.158 4.529-1.01 6.425-2.412 3.912-8.462 3.186-11.921 3.27-3.413.086-6.157-2.307-8.92-4.584-1.824-1.503-3.724-2.777-5.594-4.177-1.907-1.43-2.569-2.934-2.257-5.731z"/>
        <path stroke="#5ACEF2" d="M15.03 76.236c1.077-4.511 4.44-6.91 6.845-10.32 1.967-2.79 3.442-8.57 6.756-9.336 3.762-.867 6.014 6.792 7.321 9.747 1.452 3.278 4.036 5.944 5.111 9.414.565 1.82.08 3.52-.221 5.34-.33 2-.578 4.043-1.716 5.652-2.24 3.166-6.617 3.144-9.769 3.23-3.262.091-6.148-2.078-8.748-4.244-2.757-2.293-6.682-4.856-5.58-9.483z"/>
        <path stroke="#FF8062" d="M16.655 75.592c1.208-3.235 3.747-5.864 5.807-8.346 1.72-2.07 3.57-6.235 6.19-6.532 3.082-.35 4.95 4.098 6.162 6.825 1.193 2.68 2.913 5.51 3.573 8.452.69 3.064-1.146 7.191-2.895 9.36-1.952 2.418-5.145 3.31-7.885 3.214-2.869-.098-5.501-2.096-7.674-4.169-2.322-2.215-4.683-5.05-3.278-8.804z"/>
        <path stroke="#5ACEF2" d="M18.152 75.106c1.153-2.769 3.152-5.111 4.995-7.2 1.422-1.613 3.521-4.355 5.573-4.422 2.258-.074 4.171 2.227 5.068 4.587.885 2.327 1.817 5.245 1.95 7.798.287 5.56-5.568 11.787-9.964 11.28-4.169-.48-9.921-6.527-7.622-12.043z"/>
        <path stroke="#5BE7C3" d="M19.61 73.83c1.542-3.64 5.29-8.828 8.76-8.952 3.983-.14 4.983 5.634 4.464 9.819-.528 4.27-5.12 10.452-8.781 9.617-3.574-.815-6.272-6.167-4.444-10.484z"/>
        <path stroke="#FF8062" d="M21.092 74.54c1.36-3.006 4.264-6.76 7.292-6.874 3.609-.134 3.54 4.674 2.722 7.666-.85 3.107-4.598 8.414-7.757 7.576-3.072-.818-3.56-5.488-2.257-8.368z"/>
        <path stroke="#5ACEF2" d="M22.482 74.07c.952-2.174 3.334-4.922 5.6-5.01 2.768-.106 2.23 3.76 1.514 5.627-.85 2.22-3.7 6.08-6.091 5.454-2.355-.615-1.809-4.279-1.023-6.07z"/>
        <path stroke="#FF8062" d="M143.044 193.324c-5.68 4.201-12.1 7.669-18.155 11.194-8.847 5.15-17.825 10.162-27.122 14-4.984 2.056-11.443 5.02-16.791 3.41-1.956-.59-3.739-2.37-5.492-3.528-2.418-1.596-4.87-3.113-7.32-4.633-4.912-3.047-9.84-6.064-14.668-9.307-2.325-1.562-4.581-3.53-7.001-4.862-1.415-.779-3.107-.414-4.619-.365-3.5.115-7 .332-10.498.518-4.28.226-8.569.466-12.853.377-1.933-.04-6.665.377-7.73-1.652-.572-1.093.777-3.064 1.403-3.975 1.148-1.676 2.467-3.186 3.77-4.68 3.011-3.458 6.21-6.75 8.886-10.611 1.376-1.985 3.178-4.41 2.28-7.12-.906-2.738-2.476-5.108-3.434-7.836-1.103-3.139-1.56-6.405-2.081-9.734-.385-2.46-1.283-4.64-2.128-6.908-.932-2.507-1.898-5.035-2.546-7.678-.428-1.747-1.119-4.888.378-5.994 2.128-1.572 6.118-.299 8.543.164 3.352.64 6.679 1.453 10.021 2.154 2.427.51 4.862 1.07 7.33 1.129 3.976.096 7.966-.236 11.933-.546 7.345-.572 14.637-1.35 22.006-1.35 6.457 0 21.377 9.108 24.87 10.711 6.97 3.202 14.127 6.236 20.724 10.495 1.785 1.153 4.531 2.69 5.47 5.063.58 1.463.313 2.308 1.68 3.25 1.864 1.286 4.252 1.791 6.315 2.366 3.323.927 6.672 1.711 10.01 2.55 6.753 1.692 13.46 3.605 20.184 5.447 2.032.557 4.492.68 6.43 1.66 1.249.63 1.12 1.423.152 2.38-1.696 1.679-4.073 2.611-6.076 3.569-2.936 1.403-5.92 2.655-8.905 3.888-2.985 1.234-5.985 2.43-8.971 3.666-1.973.815-4.223 1.476-5.995 2.788z"/>
        <path stroke="#5BE7C3" d="M138.837 193.035c-6.01 4.207-12.682 7.558-19.114 10.828-8.23 4.188-16.648 8.113-25.321 10.73-5.093 1.536-11.1 3.232-16.304 1.47-1.856-.628-3.243-2.04-4.834-3.287-1.814-1.423-3.697-2.727-5.58-4.01a335.063 335.063 0 0 0-11.755-7.654c-2.097-1.309-4.405-3.062-6.774-3.516-1.883-.361-4.023.162-5.915.314-3.407.274-6.813.556-10.221.796-3.933.277-7.877.532-11.818.487-2.197-.024-5.968.383-7.522-1.346-1.355-1.509 3.58-6.965 4.447-8.002 2.71-3.236 5.56-6.318 8.083-9.78 1.49-2.04 3.306-4.523 3.934-7.228.535-2.306-.497-4.933-1.107-7.064-.762-2.67-1.377-5.437-2.263-8.05-.79-2.33-2.045-4.403-3.148-6.52-1.213-2.329-2.441-4.695-3.342-7.236-.552-1.563-1.465-4.18-.368-5.67 1.267-1.718 5.172-.596 6.777-.35 3.256.503 6.487 1.251 9.721 1.921 5.372 1.113 10.492 2.086 15.962 1.852 7.123-.304 14.239-1.02 21.36-1.416 2.63-.148 5.302-.446 7.934-.285 1.509.092 2.658.654 3.535 1.92 1.199 1.728 3.959 2.685 5.879 3.677 2.993 1.545 6.024 2.982 9.046 4.438 6.636 3.198 13.399 6.28 19.691 10.415 1.991 1.308 4.271 2.767 5.744 4.928.821 1.205.614 2.366 1.116 3.647.664 1.684 2.847 2.445 4.152 2.996 2.52 1.064 5.141 1.778 7.743 2.446 5.888 1.512 11.79 2.507 17.772 3.239 1.402.17 6.924.76 4.024 3.6-3.204 3.139-7.83 4.677-11.602 6.446-3.398 1.59-6.799 3.07-9.932 5.264z"/>
        <path stroke="#5ACEF2" d="M130.122 191.75c-5.637 3.752-11.882 6.55-17.953 9.229-7.367 3.249-14.919 6.145-22.645 7.768-4.854 1.018-10.206 1.8-15.027.108-3.292-1.155-5.839-4.278-8.73-6.426-2.892-2.148-5.9-4.165-9-5.846-1.922-1.043-3.991-2.094-6.131-1.957-5.203.334-10.4 1.13-15.608 1.517-3.446.258-6.898.47-10.354.407-2.084-.038-4.947.117-6.793-1.24-2.039-1.5 8.82-14.309 9.847-15.75 2.573-3.616 5.689-8.413 5.191-13.554-.475-4.915-2.538-8.584-4.87-12.435-1.325-2.19-5.57-8.043-3.997-10.892.899-1.628 3.862-1.064 5.27-.953 2.773.218 5.532.688 8.291 1.096 4.023.592 8.157 1.505 12.198 1.772 2.814.186 5.644-.062 8.462-.068 4.042-.006 8.083.031 12.124.076 3.394.038 6.816 0 10.197.403 2.102.248 3.698.805 5.206 2.378 1.312 1.369 3.292 2.17 4.964 3.04 2.762 1.437 5.56 2.768 8.35 4.121 5.84 2.834 11.746 5.608 17.335 9.149 2.552 1.616 6.842 3.878 7.44 7.795.217 1.412.376 2.022 1.49 2.825 1.583 1.14 3.478 1.654 5.253 2.1 4.14 1.042 8.398.886 12.53 1.916 1.683.424 3.88 1.34 1.959 3.437-2.242 2.452-5.505 3.8-8.19 5.314-1.34.756-2.722 1.464-3.995 2.386-.978.711-1.814 1.623-2.814 2.284z"/>
        <path stroke="#F1B170" d="M119.573 190.43c-5.214 3.042-10.877 5.253-16.439 7.247-6.177 2.212-12.503 4.044-18.913 4.823-4.426.54-9.142.7-13.438-.953-2.717-1.046-4.559-3.245-6.896-5.089-3.528-2.787-7.346-4.995-11.584-4.457-4.752.6-9.52 1.052-14.303 1.353-2.885.181-5.782.317-8.67.19-1.827-.078-4.18-.212-5.769-1.232-2.126-1.367 5.86-11.768 6.855-13.284 2.469-3.76 4.278-7.704 5.336-12.361.862-3.801-.9-6.789-2.717-9.632-1.13-1.765-4.78-6.206-3.637-8.499.627-1.264 2.693-1.199 3.802-1.263 2.115-.123 4.239.005 6.354.06 3.123.087 6.447-.505 9.543-.028 6.862 1.054 13.707 1.967 20.611 2.69 3.806.397 7.635.759 11.407 1.526 1.354.276 2.753.568 4.036 1.191.826.401 1.276 1.083 1.972 1.643 3.322 2.665 7.657 4.036 11.398 5.744 4.973 2.27 9.972 4.505 14.812 7.187 2.546 1.41 6.103 3.032 7.854 5.91.53.87.304 1.566.637 2.403.383.964 1.547 1.252 2.299 1.52 1.706.611 8.846 1.535 5.556 5.117-1.57 1.706-3.57 2.8-5.341 4.141-.64.486-1.266.975-1.8 1.63-.894 1.099-1.774 1.726-2.965 2.423z"/>
        <path stroke="#FF8062" d="M108.953 189.618c-10.254 4.906-22.271 8.248-33.45 7.6-3.718-.216-7.718-.937-10.94-3.405-1.9-1.458-3.419-3.104-5.701-3.63-1.648-.38-3.422.05-5.08.207-2.4.226-4.803.429-7.207.593-2.98.2-5.971.354-8.957.271-2.134-.059-5.08.008-6.934-1.407-2.213-1.688 3.42-9.605 4.213-11.015 1.92-3.42 3.267-6.732 3.754-10.853.143-1.2.626-2.431.563-3.641-.065-1.236-.682-2.336-1.251-3.308-.745-1.274-3.328-4.294-2.589-5.847.41-.858 1.944-.966 2.739-1.148 1.492-.343 3.006-.527 4.507-.8 2.546-.464 5.075-1.978 7.63-1.935 6.874.113 13.846 2.744 20.58 4.19 4.005.86 8.036 1.643 11.991 2.81 1.252.37 2.54.752 3.73 1.38.83.437 1.364 1.216 2.133 1.706 2.948 1.88 6.339 3.022 9.505 4.288 4.11 1.646 8.235 3.243 12.317 4.996 2.558 1.099 5.848 2.065 8.053 4.103 1.61 1.488.51 1.933-.34 3.318-.434.707-.334 1.403-.522 2.204-.27 1.142-1.03 1.964-1.743 2.704-.984 1.02-2.294 1.862-3.099 3.114-.284.441-.27.988-.5 1.372-.667 1.12-2.438 1.672-3.402 2.133z"/>
        <path stroke="#F1B170" d="M97.605 187.579c-8.356 3.025-17.654 4.748-26.488 3.948-3.073-.278-6.165-.925-9.028-2.347-1.303-.644-2.28-1.363-3.708-1.402-3.311-.089-6.633.223-9.944.298-2.37.054-4.751.073-7.115-.156-1.58-.153-3.718-.337-5.013-1.506-1.882-1.702 1.515-7.49 2.206-9.088 1.146-2.652 2.283-5.6 1.828-8.668-.139-.939-.386-1.768-.418-2.724-.03-.823.055-1.582-.186-2.368-.3-.974-1.63-2.486-1.172-3.383.312-.613 1.236-.642 1.85-.838.997-.318 1.97-.735 2.91-1.247.99-.542 1.833-1.38 2.858-1.827 1.664-.725 3.527-.794 5.276-.79 6.98.013 14.048 1.674 20.85 3.41 3.543.904 7.104 1.867 10.547 3.238 1.045.417 2.23.835 3.15 1.604.573.479.962 1.079 1.613 1.439 5.567 3.075 12.002 4.217 17.91 6.438 1.539.578 10.063 3.499 5.606 6.247-2.707 1.67-5.568 2.428-8.039 4.712-.752.694-1.254 1.27-1.548 2.329-.194.705.272.347-.379 1.084-.79.887-2.592 1.244-3.566 1.597z"/>
        <path stroke="#5ACEF2" d="M88.626 186.915c-9.84 2.556-20.261 2.678-30.257.412-2.52-.57-5.142-.435-7.693-.58-2.478-.139-6.885.15-8.685-2.214-1.305-1.715.111-5.358.601-7.276.624-2.443 1.17-4.967.145-7.34-.6-1.39-1.423-2.713-2.067-4.09-.308-.657-.942-1.664-.677-2.287.437-1.027 2.482-1.46 3.475-1.945 3.172-1.548 6.531-1.943 9.922-1.933 6.265.02 12.561 1.084 18.706 2.526 2.827.663 5.693 1.371 8.42 2.525 1.543.652 2.68 1.91 4.154 2.656 4.744 2.405 9.84 3.69 14.666 5.887 1.396.637 6.613 2.756 3.985 5.255-2.544 2.419-6.256 2.131-8.901 4.407-.3.26-.67.572-.844.994-.102.252.078.73 0 .874-.812 1.558-3.7 1.805-4.95 2.129z"/>
        <path stroke="#5ACEF2" d="M83.279 183.628c-5.076.824-10.262 1.029-15.423 1.08-2.821.029-5.92.242-8.68-.604-1.696-.521-3.334-.977-5.081-1.305-1.881-.354-4.909-.611-6.054-2.527-.856-1.432-.27-4.375-.238-6.116.033-1.909-.298-3.325-1.436-4.69-.715-.861-3.998-3.984-3.619-4.885.361-.858 2.649-.99 3.638-1.212 3.126-.707 6.293-.953 9.473-.915 4.925.059 9.868.654 14.716 1.676 2.004.424 4.076.864 5.99 1.713 1.29.572 2.365 1.586 3.646 2.178 3.667 1.696 7.546 2.848 11.227 4.576 1.18.555 5.03 2.034 4.107 4.312-.77 1.903-3.386 2.482-4.672 3.757-2.187 2.174-4.805 2.51-7.594 2.962z"/>
        <path stroke="#FF8062" d="M79.732 182.543c-3.934.557-7.96.8-11.95.813-2.577.008-5.294.051-7.822-.666-1.27-.36-2.373-1.2-3.575-1.8-1.237-.618-2.945-1.307-3.48-2.721-.502-1.33-.315-3.27-.756-4.873-.393-1.423-1.214-2.302-2.099-3.263-.564-.615-3.459-3.275-3.124-3.862.359-.629 2.098-.578 3.002-.665a56.415 56.415 0 0 1 7.494-.232c3.411.13 6.848.49 10.2 1.309 2.379.58 4.172 1.96 6.39 2.973 2.871 1.315 5.847 2.355 8.692 3.793 1.417.717 3.515 1.64 4.241 3.49.28.709.55 2.513.24 3.222-.374.852-1.763 1.213-2.419 1.433-1.643.546-3.362.812-5.034 1.049z"/>
    </g>
</svg>
